<svg xmlns="http://www.w3.org/2000/svg" xmlns:xlink="http://www.w3.org/1999/xlink" width="500" zoomAndPan="magnify" viewBox="0 0 375 374.999991" height="500" preserveAspectRatio="xMidYMid meet" version="1.0"><defs><clipPath id="cfb55fffdc"><path d="M 194.929688 93.929688 L 272.488281 93.929688 L 272.488281 187.398438 L 194.929688 187.398438 Z M 194.929688 93.929688 " clip-rule="nonzero"/></clipPath><clipPath id="c4b4a49863"><path d="M 211.488281 93.933594 C 211.019531 93.933594 210.554688 93.933594 210.089844 94.027344 C 209.902344 94.121094 209.53125 94.402344 209.53125 94.585938 C 209.53125 94.867188 209.71875 95.238281 209.996094 95.332031 C 210.554688 95.519531 211.113281 95.613281 211.671875 95.796875 C 214.839844 96.730469 216.421875 98.777344 216.609375 102.039062 C 216.703125 104.460938 216.332031 106.789062 215.585938 109.117188 C 215.121094 110.515625 214.652344 111.914062 214.1875 113.308594 C 213.722656 114.707031 213.351562 116.105469 212.882812 117.5 C 212.417969 118.898438 211.953125 120.296875 211.488281 121.691406 C 211.019531 122.996094 209.160156 128.585938 209.066406 128.957031 C 208.972656 129.332031 208.785156 129.703125 208.691406 129.984375 C 208.691406 130.074219 208.597656 130.167969 208.597656 130.167969 C 208.507812 130.355469 208.320312 130.355469 208.132812 130.261719 L 213.628906 133.335938 C 213.535156 133.242188 213.351562 133.054688 213.351562 132.964844 C 213.257812 132.777344 213.351562 132.683594 213.351562 132.589844 C 213.535156 132.21875 213.628906 131.84375 213.722656 131.472656 C 213.910156 131.007812 217.726562 120.386719 218.101562 119.457031 C 218.378906 118.527344 222.945312 105.859375 222.945312 105.859375 C 223.316406 106.789062 223.503906 107.347656 223.6875 107.90625 C 225.550781 114.054688 227.507812 120.109375 229.464844 126.257812 C 230.300781 129.144531 231.234375 132.03125 232.164062 134.824219 C 232.816406 136.96875 232.816406 136.96875 235.054688 136.6875 C 236.914062 136.410156 238.777344 136.035156 240.546875 135.570312 C 241.851562 135.292969 243.0625 134.917969 244.367188 134.546875 C 244.367188 134.546875 244.367188 134.546875 244.460938 134.546875 C 244.460938 134.453125 244.460938 134.453125 244.460938 134.453125 C 244.273438 133.800781 244.179688 133.148438 243.996094 132.496094 C 239.894531 120.203125 235.890625 107.90625 231.792969 95.613281 C 231.234375 93.933594 231.234375 93.933594 229.558594 93.933594 C 226.949219 93.933594 224.433594 93.933594 221.917969 93.933594 C 218.472656 93.933594 215.027344 93.933594 211.488281 93.933594 Z M 206.828125 135.011719 C 206.738281 135.011719 206.738281 134.917969 206.644531 134.917969 Z M 206.550781 139.203125 C 205.617188 142.089844 204.6875 145.070312 203.753906 147.960938 C 201.613281 154.386719 199.285156 160.90625 195.1875 166.496094 C 195 166.683594 195 166.960938 194.90625 167.242188 C 195 167.332031 195.09375 167.425781 195.1875 167.519531 C 199.472656 164.167969 204.128906 161.371094 209.625 160.160156 C 209.34375 159.789062 209.25 159.601562 209.066406 159.507812 C 207.667969 159.042969 207.203125 157.925781 207.296875 156.527344 C 207.386719 155.503906 207.480469 154.480469 207.761719 153.546875 C 208.972656 149.355469 210.183594 145.257812 211.488281 141.160156 C 211.582031 140.695312 211.765625 140.414062 212.046875 139.855469 L 206.828125 135.011719 C 207.386719 135.757812 206.921875 137.898438 206.550781 139.203125 Z M 235.238281 143.023438 C 235.425781 143.582031 235.613281 144.046875 235.796875 144.511719 C 237.382812 149.730469 239.058594 154.945312 240.734375 160.160156 C 242.316406 165.285156 243.996094 170.40625 246.695312 175.15625 C 249.304688 179.722656 252.84375 183.167969 257.6875 185.3125 C 261.785156 187.175781 266.070312 187.546875 270.355469 186.523438 C 271.101562 186.429688 271.9375 186.335938 272.40625 185.3125 C 271.9375 185.21875 271.660156 185.125 271.285156 185.125 C 266.910156 185.3125 263.835938 183.167969 261.226562 179.816406 C 259.550781 177.578125 258.339844 175.066406 257.40625 172.363281 C 254.054688 162.117188 250.703125 151.777344 247.441406 141.53125 C 247.253906 141.066406 247.160156 140.414062 247.070312 139.855469 Z M 235.238281 143.023438 " clip-rule="nonzero"/></clipPath><clipPath id="da86a62a29"><path d="M 92.851562 31.953125 L 242.996094 31.953125 L 242.996094 116.46875 L 92.851562 116.46875 Z M 92.851562 31.953125 " clip-rule="nonzero"/></clipPath><clipPath id="b824e26438"><path d="M 163.878906 32.0625 C 159.316406 32.363281 154.816406 32.789062 150.433594 33.703125 C 130.480469 37.960938 114.113281 47.878906 102.070312 64.488281 C 98.234375 69.71875 95.316406 75.5 93.1875 81.582031 C 93.003906 82.070312 92.941406 82.554688 92.882812 82.984375 C 93.003906 83.105469 93.1875 83.164062 93.308594 83.226562 C 93.613281 82.679688 93.976562 82.191406 94.28125 81.644531 C 98.964844 72.882812 104.988281 65.277344 112.59375 58.890625 C 126.890625 46.964844 143.5 40.699219 161.933594 39.179688 C 167.226562 38.691406 172.519531 38.933594 177.8125 39.789062 C 187.605469 41.308594 196.734375 44.472656 205.191406 49.703125 C 215.957031 56.273438 224.476562 65.097656 230.558594 76.109375 C 236.703125 87.121094 239.746094 99.105469 240.902344 111.578125 C 241.023438 113.160156 241.265625 114.738281 241.449219 116.320312 C 241.632812 116.320312 241.753906 116.320312 241.9375 116.382812 C 242.058594 115.957031 242.300781 115.53125 242.363281 115.042969 C 242.542969 113.339844 242.667969 111.636719 242.789062 109.875 C 242.910156 105.675781 242.667969 101.417969 242.117188 97.21875 C 241.023438 88.519531 238.652344 80.183594 234.757812 72.273438 C 230.742188 64 225.207031 56.820312 218.210938 50.738281 C 210.179688 43.742188 201.113281 38.753906 191.015625 35.589844 C 183.53125 33.277344 175.867188 31.9375 168.015625 31.9375 C 166.617188 31.9375 165.28125 32 163.878906 32.0625 Z M 163.878906 32.0625 " clip-rule="nonzero"/></clipPath><radialGradient gradientTransform="matrix(1, 0, 0, 1, 167.834837, 74.159275)" gradientUnits="userSpaceOnUse" r="60.838532" cx="0" id="8f4175e402" cy="0" fx="0" fy="0"><stop stop-opacity="1" stop-color="rgb(77.822876%, 46.034241%, 0.125122%)" offset="0"/><stop stop-opacity="1" stop-color="rgb(78.172302%, 46.347046%, 0.375366%)" offset="0.0078125"/><stop stop-opacity="1" stop-color="rgb(78.434753%, 46.582031%, 0.564575%)" offset="0.015625"/><stop stop-opacity="1" stop-color="rgb(78.608704%, 46.737671%, 0.689697%)" offset="0.0195312"/><stop stop-opacity="1" stop-color="rgb(78.78418%, 46.894836%, 0.814819%)" offset="0.0234375"/><stop stop-opacity="1" stop-color="rgb(78.95813%, 47.050476%, 0.941467%)" offset="0.0273438"/><stop stop-opacity="1" stop-color="rgb(79.133606%, 47.207642%, 1.066589%)" offset="0.03125"/><stop stop-opacity="1" stop-color="rgb(79.307556%, 47.363281%, 1.191711%)" offset="0.0351562"/><stop stop-opacity="1" stop-color="rgb(79.483032%, 47.518921%, 1.318359%)" offset="0.0390625"/><stop stop-opacity="1" stop-color="rgb(79.656982%, 47.676086%, 1.443481%)" offset="0.0429688"/><stop stop-opacity="1" stop-color="rgb(79.830933%, 47.831726%, 1.568604%)" offset="0.046875"/><stop stop-opacity="1" stop-color="rgb(80.006409%, 47.988892%, 1.695251%)" offset="0.0507812"/><stop stop-opacity="1" stop-color="rgb(80.180359%, 48.144531%, 1.820374%)" offset="0.0546875"/><stop stop-opacity="1" stop-color="rgb(80.355835%, 48.300171%, 1.945496%)" offset="0.0585938"/><stop stop-opacity="1" stop-color="rgb(80.529785%, 48.457336%, 2.072144%)" offset="0.0625"/><stop stop-opacity="1" stop-color="rgb(80.705261%, 48.612976%, 2.197266%)" offset="0.0664062"/><stop stop-opacity="1" stop-color="rgb(80.879211%, 48.770142%, 2.322388%)" offset="0.0703125"/><stop stop-opacity="1" stop-color="rgb(81.053162%, 48.925781%, 2.449036%)" offset="0.0742188"/><stop stop-opacity="1" stop-color="rgb(81.228638%, 49.081421%, 2.574158%)" offset="0.078125"/><stop stop-opacity="1" stop-color="rgb(81.402588%, 49.238586%, 2.69928%)" offset="0.0820312"/><stop stop-opacity="1" stop-color="rgb(81.578064%, 49.394226%, 2.825928%)" offset="0.0859375"/><stop stop-opacity="1" stop-color="rgb(81.752014%, 49.551392%, 2.95105%)" offset="0.0898438"/><stop stop-opacity="1" stop-color="rgb(81.92749%, 49.707031%, 3.076172%)" offset="0.09375"/><stop stop-opacity="1" stop-color="rgb(82.10144%, 49.862671%, 3.20282%)" offset="0.0976562"/><stop stop-opacity="1" stop-color="rgb(82.275391%, 50.019836%, 3.327942%)" offset="0.101562"/><stop stop-opacity="1" stop-color="rgb(82.450867%, 50.175476%, 3.453064%)" offset="0.105469"/><stop stop-opacity="1" stop-color="rgb(82.624817%, 50.332642%, 3.579712%)" offset="0.109375"/><stop stop-opacity="1" stop-color="rgb(82.800293%, 50.488281%, 3.704834%)" offset="0.113281"/><stop stop-opacity="1" stop-color="rgb(82.974243%, 50.643921%, 3.829956%)" offset="0.117188"/><stop stop-opacity="1" stop-color="rgb(83.149719%, 50.801086%, 3.956604%)" offset="0.121094"/><stop stop-opacity="1" stop-color="rgb(83.323669%, 50.956726%, 4.081726%)" offset="0.125"/><stop stop-opacity="1" stop-color="rgb(83.49762%, 51.113892%, 4.206848%)" offset="0.128906"/><stop stop-opacity="1" stop-color="rgb(83.673096%, 51.269531%, 4.333496%)" offset="0.132812"/><stop stop-opacity="1" stop-color="rgb(83.847046%, 51.425171%, 4.458618%)" offset="0.136719"/><stop stop-opacity="1" stop-color="rgb(84.022522%, 51.582336%, 4.58374%)" offset="0.140625"/><stop stop-opacity="1" stop-color="rgb(84.196472%, 51.737976%, 4.710388%)" offset="0.144531"/><stop stop-opacity="1" stop-color="rgb(84.371948%, 51.895142%, 4.83551%)" offset="0.148438"/><stop stop-opacity="1" stop-color="rgb(84.545898%, 52.050781%, 4.960632%)" offset="0.152344"/><stop stop-opacity="1" stop-color="rgb(84.719849%, 52.206421%, 5.08728%)" offset="0.15625"/><stop stop-opacity="1" stop-color="rgb(84.895325%, 52.363586%, 5.212402%)" offset="0.160156"/><stop stop-opacity="1" stop-color="rgb(85.069275%, 52.519226%, 5.337524%)" offset="0.164062"/><stop stop-opacity="1" stop-color="rgb(85.244751%, 52.676392%, 5.464172%)" offset="0.167969"/><stop stop-opacity="1" stop-color="rgb(85.418701%, 52.832031%, 5.589294%)" offset="0.171875"/><stop stop-opacity="1" stop-color="rgb(85.594177%, 52.987671%, 5.714417%)" offset="0.175781"/><stop stop-opacity="1" stop-color="rgb(85.768127%, 53.144836%, 5.841064%)" offset="0.179688"/><stop stop-opacity="1" stop-color="rgb(85.943604%, 53.300476%, 5.966187%)" offset="0.183594"/><stop stop-opacity="1" stop-color="rgb(86.117554%, 53.457642%, 6.091309%)" offset="0.1875"/><stop stop-opacity="1" stop-color="rgb(86.291504%, 53.613281%, 6.217957%)" offset="0.191406"/><stop stop-opacity="1" stop-color="rgb(86.46698%, 53.768921%, 6.343079%)" offset="0.195312"/><stop stop-opacity="1" stop-color="rgb(86.64093%, 53.926086%, 6.468201%)" offset="0.199219"/><stop stop-opacity="1" stop-color="rgb(86.816406%, 54.081726%, 6.594849%)" offset="0.203125"/><stop stop-opacity="1" stop-color="rgb(86.990356%, 54.238892%, 6.719971%)" offset="0.207031"/><stop stop-opacity="1" stop-color="rgb(87.165833%, 54.394531%, 6.845093%)" offset="0.210938"/><stop stop-opacity="1" stop-color="rgb(87.339783%, 54.550171%, 6.971741%)" offset="0.214844"/><stop stop-opacity="1" stop-color="rgb(87.513733%, 54.707336%, 7.096863%)" offset="0.21875"/><stop stop-opacity="1" stop-color="rgb(87.689209%, 54.862976%, 7.221985%)" offset="0.222656"/><stop stop-opacity="1" stop-color="rgb(87.863159%, 55.020142%, 7.348633%)" offset="0.226562"/><stop stop-opacity="1" stop-color="rgb(88.038635%, 55.175781%, 7.473755%)" offset="0.230469"/><stop stop-opacity="1" stop-color="rgb(88.212585%, 55.331421%, 7.598877%)" offset="0.234375"/><stop stop-opacity="1" stop-color="rgb(88.388062%, 55.488586%, 7.725525%)" offset="0.238281"/><stop stop-opacity="1" stop-color="rgb(88.562012%, 55.644226%, 7.850647%)" offset="0.242188"/><stop stop-opacity="1" stop-color="rgb(88.735962%, 55.801392%, 7.975769%)" offset="0.246094"/><stop stop-opacity="1" stop-color="rgb(88.911438%, 55.957031%, 8.102417%)" offset="0.25"/><stop stop-opacity="1" stop-color="rgb(89.172363%, 56.190491%, 8.2901%)" offset="0.253906"/><stop stop-opacity="1" stop-color="rgb(89.52179%, 56.503296%, 8.54187%)" offset="0.261719"/><stop stop-opacity="1" stop-color="rgb(89.871216%, 56.816101%, 8.792114%)" offset="0.269531"/><stop stop-opacity="1" stop-color="rgb(90.220642%, 57.128906%, 9.043884%)" offset="0.277344"/><stop stop-opacity="1" stop-color="rgb(90.570068%, 57.441711%, 9.295654%)" offset="0.285156"/><stop stop-opacity="1" stop-color="rgb(90.919495%, 57.752991%, 9.545898%)" offset="0.292969"/><stop stop-opacity="1" stop-color="rgb(91.267395%, 58.065796%, 9.797668%)" offset="0.300781"/><stop stop-opacity="1" stop-color="rgb(91.616821%, 58.378601%, 10.049438%)" offset="0.308594"/><stop stop-opacity="1" stop-color="rgb(91.966248%, 58.691406%, 10.299683%)" offset="0.316406"/><stop stop-opacity="1" stop-color="rgb(92.315674%, 59.004211%, 10.551453%)" offset="0.324219"/><stop stop-opacity="1" stop-color="rgb(92.6651%, 59.315491%, 10.803223%)" offset="0.332031"/><stop stop-opacity="1" stop-color="rgb(93.014526%, 59.628296%, 11.053467%)" offset="0.339844"/><stop stop-opacity="1" stop-color="rgb(93.363953%, 59.941101%, 11.305237%)" offset="0.347656"/><stop stop-opacity="1" stop-color="rgb(93.713379%, 60.253906%, 11.555481%)" offset="0.355469"/><stop stop-opacity="1" stop-color="rgb(94.061279%, 60.566711%, 11.807251%)" offset="0.363281"/><stop stop-opacity="1" stop-color="rgb(94.410706%, 60.877991%, 12.059021%)" offset="0.371094"/><stop stop-opacity="1" stop-color="rgb(94.760132%, 61.190796%, 12.309265%)" offset="0.378906"/><stop stop-opacity="1" stop-color="rgb(95.109558%, 61.503601%, 12.561035%)" offset="0.386719"/><stop stop-opacity="1" stop-color="rgb(95.458984%, 61.816406%, 12.812805%)" offset="0.394531"/><stop stop-opacity="1" stop-color="rgb(95.808411%, 62.129211%, 13.063049%)" offset="0.402344"/><stop stop-opacity="1" stop-color="rgb(96.157837%, 62.440491%, 13.314819%)" offset="0.410156"/><stop stop-opacity="1" stop-color="rgb(96.505737%, 62.753296%, 13.566589%)" offset="0.417969"/><stop stop-opacity="1" stop-color="rgb(96.855164%, 63.066101%, 13.816833%)" offset="0.425781"/><stop stop-opacity="1" stop-color="rgb(97.20459%, 63.378906%, 14.068604%)" offset="0.433594"/><stop stop-opacity="1" stop-color="rgb(97.554016%, 63.691711%, 14.320374%)" offset="0.441406"/><stop stop-opacity="1" stop-color="rgb(97.903442%, 64.002991%, 14.570618%)" offset="0.449219"/><stop stop-opacity="1" stop-color="rgb(98.252869%, 64.315796%, 14.822388%)" offset="0.457031"/><stop stop-opacity="1" stop-color="rgb(98.602295%, 64.628601%, 15.074158%)" offset="0.464844"/><stop stop-opacity="1" stop-color="rgb(98.950195%, 64.941406%, 15.324402%)" offset="0.472656"/><stop stop-opacity="1" stop-color="rgb(99.299622%, 65.254211%, 15.576172%)" offset="0.480469"/><stop stop-opacity="1" stop-color="rgb(99.649048%, 65.565491%, 15.827942%)" offset="0.488281"/><stop stop-opacity="1" stop-color="rgb(99.649048%, 65.565491%, 15.827942%)" offset="0.496094"/><stop stop-opacity="1" stop-color="rgb(99.388123%, 65.332031%, 15.638733%)" offset="0.511719"/><stop stop-opacity="1" stop-color="rgb(99.212646%, 65.176392%, 15.513611%)" offset="0.515625"/><stop stop-opacity="1" stop-color="rgb(99.038696%, 65.019226%, 15.388489%)" offset="0.519531"/><stop stop-opacity="1" stop-color="rgb(98.86322%, 64.863586%, 15.261841%)" offset="0.523438"/><stop stop-opacity="1" stop-color="rgb(98.68927%, 64.706421%, 15.136719%)" offset="0.527344"/><stop stop-opacity="1" stop-color="rgb(98.51532%, 64.550781%, 15.011597%)" offset="0.53125"/><stop stop-opacity="1" stop-color="rgb(98.339844%, 64.395142%, 14.884949%)" offset="0.535156"/><stop stop-opacity="1" stop-color="rgb(98.165894%, 64.237976%, 14.759827%)" offset="0.539062"/><stop stop-opacity="1" stop-color="rgb(97.990417%, 64.082336%, 14.634705%)" offset="0.542969"/><stop stop-opacity="1" stop-color="rgb(97.816467%, 63.925171%, 14.508057%)" offset="0.546875"/><stop stop-opacity="1" stop-color="rgb(97.640991%, 63.769531%, 14.382935%)" offset="0.550781"/><stop stop-opacity="1" stop-color="rgb(97.467041%, 63.613892%, 14.257812%)" offset="0.554688"/><stop stop-opacity="1" stop-color="rgb(97.293091%, 63.456726%, 14.131165%)" offset="0.558594"/><stop stop-opacity="1" stop-color="rgb(97.117615%, 63.301086%, 14.006042%)" offset="0.5625"/><stop stop-opacity="1" stop-color="rgb(96.943665%, 63.143921%, 13.88092%)" offset="0.566406"/><stop stop-opacity="1" stop-color="rgb(96.768188%, 62.988281%, 13.754272%)" offset="0.570312"/><stop stop-opacity="1" stop-color="rgb(96.594238%, 62.832642%, 13.62915%)" offset="0.574219"/><stop stop-opacity="1" stop-color="rgb(96.418762%, 62.675476%, 13.504028%)" offset="0.578125"/><stop stop-opacity="1" stop-color="rgb(96.244812%, 62.519836%, 13.37738%)" offset="0.582031"/><stop stop-opacity="1" stop-color="rgb(96.070862%, 62.362671%, 13.252258%)" offset="0.585938"/><stop stop-opacity="1" stop-color="rgb(95.895386%, 62.207031%, 13.127136%)" offset="0.589844"/><stop stop-opacity="1" stop-color="rgb(95.721436%, 62.051392%, 13.000488%)" offset="0.59375"/><stop stop-opacity="1" stop-color="rgb(95.545959%, 61.894226%, 12.875366%)" offset="0.597656"/><stop stop-opacity="1" stop-color="rgb(95.372009%, 61.738586%, 12.750244%)" offset="0.601562"/><stop stop-opacity="1" stop-color="rgb(95.196533%, 61.581421%, 12.623596%)" offset="0.605469"/><stop stop-opacity="1" stop-color="rgb(95.022583%, 61.425781%, 12.498474%)" offset="0.609375"/><stop stop-opacity="1" stop-color="rgb(94.848633%, 61.270142%, 12.373352%)" offset="0.613281"/><stop stop-opacity="1" stop-color="rgb(94.673157%, 61.112976%, 12.246704%)" offset="0.617188"/><stop stop-opacity="1" stop-color="rgb(94.499207%, 60.957336%, 12.121582%)" offset="0.621094"/><stop stop-opacity="1" stop-color="rgb(94.32373%, 60.800171%, 11.99646%)" offset="0.625"/><stop stop-opacity="1" stop-color="rgb(94.061279%, 60.566711%, 11.807251%)" offset="0.628906"/><stop stop-opacity="1" stop-color="rgb(93.713379%, 60.253906%, 11.555481%)" offset="0.636719"/><stop stop-opacity="1" stop-color="rgb(93.363953%, 59.941101%, 11.305237%)" offset="0.644531"/><stop stop-opacity="1" stop-color="rgb(93.014526%, 59.628296%, 11.053467%)" offset="0.652344"/><stop stop-opacity="1" stop-color="rgb(92.6651%, 59.315491%, 10.803223%)" offset="0.660156"/><stop stop-opacity="1" stop-color="rgb(92.315674%, 59.004211%, 10.551453%)" offset="0.667969"/><stop stop-opacity="1" stop-color="rgb(91.966248%, 58.691406%, 10.299683%)" offset="0.675781"/><stop stop-opacity="1" stop-color="rgb(91.616821%, 58.378601%, 10.049438%)" offset="0.683594"/><stop stop-opacity="1" stop-color="rgb(91.267395%, 58.065796%, 9.797668%)" offset="0.691406"/><stop stop-opacity="1" stop-color="rgb(90.919495%, 57.752991%, 9.545898%)" offset="0.699219"/><stop stop-opacity="1" stop-color="rgb(90.570068%, 57.441711%, 9.295654%)" offset="0.707031"/><stop stop-opacity="1" stop-color="rgb(90.220642%, 57.128906%, 9.043884%)" offset="0.714844"/><stop stop-opacity="1" stop-color="rgb(89.871216%, 56.816101%, 8.792114%)" offset="0.722656"/><stop stop-opacity="1" stop-color="rgb(89.52179%, 56.503296%, 8.54187%)" offset="0.730469"/><stop stop-opacity="1" stop-color="rgb(89.172363%, 56.190491%, 8.2901%)" offset="0.738281"/><stop stop-opacity="1" stop-color="rgb(88.822937%, 55.879211%, 8.03833%)" offset="0.746094"/><stop stop-opacity="1" stop-color="rgb(88.562012%, 55.644226%, 7.850647%)" offset="0.753906"/><stop stop-opacity="1" stop-color="rgb(88.388062%, 55.488586%, 7.725525%)" offset="0.757812"/><stop stop-opacity="1" stop-color="rgb(88.212585%, 55.331421%, 7.598877%)" offset="0.761719"/><stop stop-opacity="1" stop-color="rgb(88.038635%, 55.175781%, 7.473755%)" offset="0.765625"/><stop stop-opacity="1" stop-color="rgb(87.863159%, 55.020142%, 7.348633%)" offset="0.769531"/><stop stop-opacity="1" stop-color="rgb(87.689209%, 54.862976%, 7.221985%)" offset="0.773438"/><stop stop-opacity="1" stop-color="rgb(87.513733%, 54.707336%, 7.096863%)" offset="0.777344"/><stop stop-opacity="1" stop-color="rgb(87.339783%, 54.550171%, 6.971741%)" offset="0.78125"/><stop stop-opacity="1" stop-color="rgb(87.165833%, 54.394531%, 6.845093%)" offset="0.785156"/><stop stop-opacity="1" stop-color="rgb(86.990356%, 54.238892%, 6.719971%)" offset="0.789062"/><stop stop-opacity="1" stop-color="rgb(86.816406%, 54.081726%, 6.594849%)" offset="0.792969"/><stop stop-opacity="1" stop-color="rgb(86.64093%, 53.926086%, 6.468201%)" offset="0.796875"/><stop stop-opacity="1" stop-color="rgb(86.46698%, 53.768921%, 6.343079%)" offset="0.800781"/><stop stop-opacity="1" stop-color="rgb(86.291504%, 53.613281%, 6.217957%)" offset="0.804688"/><stop stop-opacity="1" stop-color="rgb(86.117554%, 53.457642%, 6.091309%)" offset="0.808594"/><stop stop-opacity="1" stop-color="rgb(85.943604%, 53.300476%, 5.966187%)" offset="0.8125"/><stop stop-opacity="1" stop-color="rgb(85.681152%, 53.065491%, 5.776978%)" offset="0.816406"/><stop stop-opacity="1" stop-color="rgb(85.331726%, 52.754211%, 5.526733%)" offset="0.824219"/><stop stop-opacity="1" stop-color="rgb(84.9823%, 52.441406%, 5.274963%)" offset="0.832031"/><stop stop-opacity="1" stop-color="rgb(84.632874%, 52.128601%, 5.023193%)" offset="0.839844"/><stop stop-opacity="1" stop-color="rgb(84.283447%, 51.815796%, 4.772949%)" offset="0.847656"/><stop stop-opacity="1" stop-color="rgb(83.934021%, 51.502991%, 4.521179%)" offset="0.855469"/><stop stop-opacity="1" stop-color="rgb(83.584595%, 51.191711%, 4.269409%)" offset="0.863281"/><stop stop-opacity="1" stop-color="rgb(83.236694%, 50.878906%, 4.019165%)" offset="0.871094"/><stop stop-opacity="1" stop-color="rgb(82.974243%, 50.643921%, 3.829956%)" offset="0.878906"/><stop stop-opacity="1" stop-color="rgb(82.800293%, 50.488281%, 3.704834%)" offset="0.882812"/><stop stop-opacity="1" stop-color="rgb(82.624817%, 50.332642%, 3.579712%)" offset="0.886719"/><stop stop-opacity="1" stop-color="rgb(82.450867%, 50.175476%, 3.453064%)" offset="0.890625"/><stop stop-opacity="1" stop-color="rgb(82.275391%, 50.019836%, 3.327942%)" offset="0.894531"/><stop stop-opacity="1" stop-color="rgb(82.10144%, 49.862671%, 3.20282%)" offset="0.898438"/><stop stop-opacity="1" stop-color="rgb(81.92749%, 49.707031%, 3.076172%)" offset="0.902344"/><stop stop-opacity="1" stop-color="rgb(81.752014%, 49.551392%, 2.95105%)" offset="0.90625"/><stop stop-opacity="1" stop-color="rgb(81.489563%, 49.316406%, 2.761841%)" offset="0.910156"/><stop stop-opacity="1" stop-color="rgb(81.140137%, 49.003601%, 2.511597%)" offset="0.917969"/><stop stop-opacity="1" stop-color="rgb(80.792236%, 48.690796%, 2.259827%)" offset="0.925781"/><stop stop-opacity="1" stop-color="rgb(80.44281%, 48.377991%, 2.008057%)" offset="0.933594"/><stop stop-opacity="1" stop-color="rgb(80.180359%, 48.144531%, 1.820374%)" offset="0.941406"/><stop stop-opacity="1" stop-color="rgb(80.006409%, 47.988892%, 1.695251%)" offset="0.945312"/><stop stop-opacity="1" stop-color="rgb(79.830933%, 47.831726%, 1.568604%)" offset="0.949219"/><stop stop-opacity="1" stop-color="rgb(79.656982%, 47.676086%, 1.443481%)" offset="0.953125"/><stop stop-opacity="1" stop-color="rgb(79.394531%, 47.441101%, 1.254272%)" offset="0.957031"/><stop stop-opacity="1" stop-color="rgb(79.045105%, 47.128296%, 1.004028%)" offset="0.964844"/><stop stop-opacity="1" stop-color="rgb(78.78418%, 46.894836%, 0.814819%)" offset="0.972656"/><stop stop-opacity="1" stop-color="rgb(78.608704%, 46.737671%, 0.689697%)" offset="0.976562"/><stop stop-opacity="1" stop-color="rgb(78.347778%, 46.504211%, 0.500488%)" offset="0.980469"/><stop stop-opacity="1" stop-color="rgb(78.085327%, 46.269226%, 0.312805%)" offset="0.988281"/><stop stop-opacity="1" stop-color="rgb(77.822876%, 46.034241%, 0.125122%)" offset="0.992188"/><stop stop-opacity="1" stop-color="rgb(77.648926%, 45.878601%, 0%)" offset="1"/></radialGradient><clipPath id="6f004a7213"><path d="M 81.828125 224.765625 L 222.855469 224.765625 L 222.855469 247.75 L 81.828125 247.75 Z M 81.828125 224.765625 " clip-rule="nonzero"/></clipPath><clipPath id="8ff487f43d"><path d="M 222.808594 242 C 222.59375 242.179688 222.410156 242.40625 222.167969 242.53125 C 217.085938 245.179688 211.699219 246.789062 206 247.40625 C 196.75 248.402344 187.976562 246.386719 179.390625 243.238281 C 175.304688 241.734375 171.273438 240.085938 167.210938 238.515625 C 160.097656 235.765625 152.757812 234.101562 145.125 233.667969 C 139.96875 233.375 134.894531 233.957031 129.816406 234.660156 C 124.09375 235.449219 118.394531 236.390625 112.570312 236.335938 C 106.6875 236.28125 101.121094 234.941406 95.703125 232.789062 C 91.085938 230.953125 86.695312 228.6875 82.652344 225.773438 C 82.410156 225.601562 82.195312 225.394531 81.980469 225.195312 C 81.945312 225.164062 81.957031 225.082031 81.917969 224.855469 C 82.339844 224.972656 82.714844 225.027344 83.050781 225.175781 C 88.277344 227.480469 93.78125 228.765625 99.410156 229.550781 C 104.222656 230.222656 109.046875 230.089844 113.839844 229.335938 C 120.308594 228.316406 126.761719 227.179688 133.234375 226.195312 C 136 225.773438 138.800781 225.601562 141.585938 225.34375 C 143.128906 225.203125 144.679688 225.027344 146.222656 225.039062 C 153.964844 225.097656 161.53125 226.269531 168.902344 228.691406 C 175.605469 230.894531 181.988281 233.859375 188.425781 236.699219 C 194.183594 239.238281 200.140625 241.132812 206.367188 242.050781 C 210.203125 242.617188 214.074219 242.820312 217.949219 242.226562 C 219.519531 241.984375 221.105469 241.863281 222.6875 241.6875 Z M 222.808594 242 " clip-rule="nonzero"/></clipPath><clipPath id="47f9bf01de"><path d="M 0.828125 0.765625 L 141.855469 0.765625 L 141.855469 23.75 L 0.828125 23.75 Z M 0.828125 0.765625 " clip-rule="nonzero"/></clipPath><clipPath id="d58d3ac085"><path d="M 141.808594 18 C 141.59375 18.179688 141.410156 18.40625 141.167969 18.53125 C 136.085938 21.179688 130.699219 22.789062 125 23.40625 C 115.75 24.402344 106.976562 22.386719 98.390625 19.238281 C 94.304688 17.734375 90.273438 16.085938 86.210938 14.515625 C 79.097656 11.765625 71.757812 10.101562 64.125 9.667969 C 58.96875 9.375 53.894531 9.957031 48.816406 10.660156 C 43.09375 11.449219 37.394531 12.390625 31.570312 12.335938 C 25.6875 12.28125 20.121094 10.941406 14.703125 8.789062 C 10.085938 6.953125 5.695312 4.6875 1.652344 1.773438 C 1.410156 1.601562 1.195312 1.394531 0.980469 1.195312 C 0.945312 1.164062 0.957031 1.082031 0.917969 0.855469 C 1.339844 0.972656 1.714844 1.027344 2.050781 1.175781 C 7.277344 3.480469 12.78125 4.765625 18.410156 5.550781 C 23.222656 6.222656 28.046875 6.089844 32.839844 5.335938 C 39.308594 4.316406 45.761719 3.179688 52.234375 2.195312 C 55 1.773438 57.800781 1.601562 60.585938 1.34375 C 62.128906 1.203125 63.679688 1.027344 65.222656 1.039062 C 72.964844 1.097656 80.53125 2.269531 87.902344 4.691406 C 94.605469 6.894531 100.988281 9.859375 107.425781 12.699219 C 113.183594 15.238281 119.140625 17.132812 125.367188 18.050781 C 129.203125 18.617188 133.074219 18.820312 136.949219 18.226562 C 138.519531 17.984375 140.105469 17.863281 141.6875 17.6875 Z M 141.808594 18 " clip-rule="nonzero"/></clipPath><clipPath id="f02396a7e6"><rect x="0" width="142" y="0" height="24"/></clipPath><clipPath id="5895ed4a59"><path d="M 174.496094 222.640625 L 258 222.640625 L 258 238.765625 L 174.496094 238.765625 Z M 174.496094 222.640625 " clip-rule="nonzero"/></clipPath><clipPath id="c484ff1a05"><path d="M 257.972656 222.972656 C 257.460938 223.257812 257.277344 223.40625 257.070312 223.464844 C 252.703125 224.714844 248.777344 226.863281 244.953125 229.253906 C 242.113281 231.03125 239.273438 232.828125 236.316406 234.402344 C 231.386719 237.023438 226.054688 238.25 220.484375 238.640625 C 211.835938 239.242188 203.550781 237.671875 195.523438 234.621094 C 189.648438 232.390625 183.855469 229.941406 178.019531 227.601562 C 176.878906 227.144531 175.714844 226.742188 174.558594 226.3125 C 174.574219 226.195312 174.585938 226.078125 174.601562 225.960938 C 175.027344 225.921875 175.460938 225.824219 175.882812 225.863281 C 181.1875 226.371094 186.414062 227.339844 191.625 228.429688 C 197.003906 229.554688 202.394531 230.726562 207.835938 231.453125 C 217.710938 232.773438 227.417969 231.835938 236.832031 228.410156 C 239.871094 227.304688 242.9375 226.273438 245.964844 225.152344 C 249.582031 223.8125 253.296875 222.972656 257.140625 222.703125 C 257.296875 222.691406 257.464844 222.804688 257.972656 222.972656 Z M 257.972656 222.972656 " clip-rule="nonzero"/></clipPath><clipPath id="4a2862d0a6"><path d="M 0.496094 0.640625 L 84 0.640625 L 84 16.765625 L 0.496094 16.765625 Z M 0.496094 0.640625 " clip-rule="nonzero"/></clipPath><clipPath id="3623f1e240"><path d="M 83.972656 0.972656 C 83.460938 1.257812 83.277344 1.40625 83.070312 1.464844 C 78.703125 2.714844 74.777344 4.863281 70.953125 7.253906 C 68.113281 9.03125 65.273438 10.828125 62.316406 12.402344 C 57.386719 15.023438 52.054688 16.25 46.484375 16.640625 C 37.835938 17.242188 29.550781 15.671875 21.523438 12.621094 C 15.648438 10.390625 9.855469 7.941406 4.019531 5.601562 C 2.878906 5.144531 1.714844 4.742188 0.558594 4.3125 C 0.574219 4.195312 0.585938 4.078125 0.601562 3.960938 C 1.027344 3.921875 1.460938 3.824219 1.882812 3.863281 C 7.1875 4.371094 12.414062 5.339844 17.625 6.429688 C 23.003906 7.554688 28.394531 8.726562 33.835938 9.453125 C 43.710938 10.773438 53.417969 9.835938 62.832031 6.410156 C 65.871094 5.304688 68.9375 4.273438 71.964844 3.152344 C 75.582031 1.8125 79.296875 0.972656 83.140625 0.703125 C 83.296875 0.691406 83.464844 0.804688 83.972656 0.972656 Z M 83.972656 0.972656 " clip-rule="nonzero"/></clipPath><clipPath id="e5ff628342"><rect x="0" width="84" y="0" height="17"/></clipPath><clipPath id="88282a101d"><path d="M 118.105469 237.628906 L 196.640625 237.628906 L 196.640625 253.070312 L 118.105469 253.070312 Z M 118.105469 237.628906 " clip-rule="nonzero"/></clipPath><clipPath id="614ed3c505"><path d="M 196.613281 251.113281 C 196.296875 251.242188 195.992188 251.40625 195.664062 251.488281 C 191.464844 252.550781 187.195312 252.933594 182.867188 253.003906 C 175.082031 253.128906 167.664062 251.492188 160.417969 248.796875 C 155.652344 247.023438 150.910156 245.148438 146.054688 243.648438 C 138.761719 241.394531 131.25 240.964844 123.660156 241.65625 C 121.835938 241.820312 120.007812 241.949219 118.105469 241.804688 C 118.390625 241.660156 118.664062 241.46875 118.964844 241.375 C 126.558594 239.066406 134.285156 237.5625 142.261719 237.628906 C 147.328125 237.675781 152.308594 238.417969 157.089844 240.019531 C 162.191406 241.730469 167.199219 243.730469 172.210938 245.703125 C 177.96875 247.976562 183.855469 249.75 190.023438 250.445312 C 191.5625 250.617188 193.132812 250.550781 194.6875 250.585938 C 195.316406 250.601562 195.949219 250.589844 196.578125 250.589844 C 196.589844 250.765625 196.601562 250.9375 196.613281 251.113281 Z M 196.613281 251.113281 " clip-rule="nonzero"/></clipPath><clipPath id="4f9d242202"><path d="M 0.105469 0.628906 L 78.640625 0.628906 L 78.640625 16.070312 L 0.105469 16.070312 Z M 0.105469 0.628906 " clip-rule="nonzero"/></clipPath><clipPath id="dee572092b"><path d="M 78.613281 14.113281 C 78.296875 14.242188 77.992188 14.40625 77.664062 14.488281 C 73.464844 15.550781 69.195312 15.933594 64.867188 16.003906 C 57.082031 16.128906 49.664062 14.492188 42.417969 11.796875 C 37.652344 10.023438 32.910156 8.148438 28.054688 6.648438 C 20.761719 4.394531 13.25 3.964844 5.660156 4.65625 C 3.835938 4.820312 2.007812 4.949219 0.105469 4.804688 C 0.390625 4.660156 0.664062 4.46875 0.964844 4.375 C 8.558594 2.066406 16.285156 0.5625 24.261719 0.628906 C 29.328125 0.675781 34.308594 1.417969 39.089844 3.019531 C 44.191406 4.730469 49.199219 6.730469 54.210938 8.703125 C 59.96875 10.976562 65.855469 12.75 72.023438 13.445312 C 73.5625 13.617188 75.132812 13.550781 76.6875 13.585938 C 77.316406 13.601562 77.949219 13.589844 78.578125 13.589844 C 78.589844 13.765625 78.601562 13.9375 78.613281 14.113281 Z M 78.613281 14.113281 " clip-rule="nonzero"/></clipPath><clipPath id="d8ff985063"><rect x="0" width="79" y="0" height="17"/></clipPath><clipPath id="48369c5671"><path d="M 129.757812 63.34375 L 276.917969 63.34375 L 276.917969 167.75 L 129.757812 167.75 Z M 129.757812 63.34375 " clip-rule="nonzero"/></clipPath><clipPath id="99dd2519e0"><path d="M 200.171875 63.390625 C 194.050781 63.328125 187.925781 63.355469 181.714844 63.382812 C 181.625 63.382812 181.449219 63.382812 181.273438 63.382812 C 180.738281 63.386719 180.117188 63.300781 179.585938 63.390625 C 179.144531 63.480469 178.699219 63.75 177.902344 64.019531 C 178.613281 64.371094 178.96875 64.636719 179.324219 64.8125 C 182.167969 65.6875 183.507812 67.808594 184.140625 70.558594 C 184.414062 71.976562 184.597656 73.484375 184.605469 74.992188 C 184.570312 87.769531 184.445312 100.636719 184.410156 113.414062 C 184.410156 113.503906 184.234375 113.683594 184.144531 113.949219 C 178.898438 110.777344 173.296875 108.40625 167.257812 107.453125 C 161.042969 106.414062 155.015625 107.417969 148.988281 109.484375 C 148.894531 108.417969 148.804688 107.707031 148.800781 106.910156 C 148.84375 96.441406 148.800781 85.96875 148.847656 75.410156 C 148.839844 74.257812 148.835938 73.015625 149.007812 71.859375 C 149.347656 68.484375 150.667969 65.820312 154.300781 64.738281 C 154.566406 64.648438 154.832031 64.382812 155.1875 64.203125 C 154.652344 63.40625 153.851562 63.410156 153.144531 63.324219 C 153.054688 63.324219 152.964844 63.324219 152.964844 63.324219 C 150.390625 63.335938 147.820312 63.347656 145.246094 63.355469 C 140.808594 63.375 136.371094 63.304688 132.023438 63.324219 C 131.847656 63.324219 131.757812 63.324219 131.667969 63.324219 C 130.960938 63.328125 130.25 63.332031 129.71875 64.042969 C 129.898438 64.21875 129.898438 64.398438 129.988281 64.398438 C 130.34375 64.574219 130.609375 64.660156 130.964844 64.835938 C 134.34375 65.886719 136.039062 68.363281 136.230469 71.734375 C 136.421875 74.753906 136.609375 77.769531 136.625 80.785156 C 136.570312 89.480469 136.429688 98.089844 136.378906 106.785156 C 136.335938 117.875 136.292969 128.96875 136.339844 140.058594 C 136.269531 144.496094 136.378906 148.933594 136.21875 153.28125 C 136.054688 156.65625 135.003906 159.585938 131.726562 161.375 C 131.726562 161.375 131.726562 161.554688 131.640625 161.730469 C 132.707031 162.257812 133.773438 162.785156 134.753906 163.402344 C 135.820312 164.019531 136.710938 164.816406 137.6875 165.519531 C 138.578125 166.136719 139.117188 167.378906 140.359375 167.726562 C 140.535156 167.371094 140.800781 167.015625 140.886719 166.660156 C 142.292969 162.839844 144.316406 159.371094 146.699219 156.078125 C 148.113281 154.121094 148.636719 152.078125 148.625 149.679688 C 148.582031 139.03125 148.714844 128.382812 148.847656 117.648438 C 148.835938 115.605469 148.925781 115.605469 150.875 114.976562 C 155.394531 113.625 160.007812 113.253906 164.625 114.03125 C 171.640625 115.15625 177.597656 118.324219 183.382812 122.203125 C 184.003906 122.644531 184.363281 123.265625 184.277344 124.0625 C 184.277344 124.417969 184.28125 124.863281 184.28125 125.304688 C 184.316406 133.734375 184.265625 142.253906 184.300781 150.683594 C 184.308594 152.105469 184.402344 153.433594 185.292969 154.585938 C 187.703125 157.679688 189.492188 161.132812 191.015625 164.675781 C 191.195312 165.117188 191.550781 165.472656 191.90625 166.003906 C 192.347656 165.378906 192.703125 164.933594 192.964844 164.402344 C 194.199219 162.265625 195.433594 160.574219 195.957031 158.089844 C 196.652344 154.625 196.195312 151.34375 196.179688 147.792969 C 196.246094 142.738281 196.226562 137.589844 196.203125 132.445312 C 196.203125 132.089844 196.378906 131.734375 196.464844 131.199219 C 199.3125 132.875 202.066406 134.460938 204.738281 136.136719 C 205.003906 136.222656 205.183594 136.398438 205.359375 136.488281 C 205.359375 136.488281 211.226562 139.300781 211.226562 139.300781 C 218.605469 142.464844 226.242188 143.675781 234.222656 142.398438 C 234.222656 142.488281 234.222656 142.488281 234.3125 142.578125 C 234.3125 142.578125 246.011719 139.332031 246.011719 139.332031 L 234.488281 142.398438 C 235.996094 142.039062 246.011719 139.332031 246.011719 139.332031 C 246.808594 138.976562 247.339844 138.707031 247.960938 138.4375 C 256.109375 134.855469 263.273438 129.945312 269.371094 123.527344 C 272.109375 120.679688 274.316406 117.5625 276.339844 114.183594 C 276.78125 113.472656 277.402344 112.757812 277.042969 111.785156 C 275.890625 112.144531 275.800781 112.144531 274.917969 113.300781 C 272.003906 116.773438 268.644531 119.714844 265.195312 122.570312 C 259.449219 127.210938 253.253906 131.050781 246.253906 133.566406 C 240.761719 135.628906 235.085938 136.804688 229.320312 136.917969 C 228.609375 136.921875 227.8125 136.925781 227.101562 136.839844 C 226.214844 136.84375 225.414062 136.757812 224.527344 136.585938 C 223.640625 136.5 222.75 136.324219 221.953125 136.152344 C 221.0625 135.976562 220.265625 135.804688 219.375 135.539062 C 218.574219 135.277344 217.777344 135.015625 216.886719 134.664062 C 216.085938 134.402344 215.289062 134.050781 214.488281 133.699219 C 214.042969 133.523438 213.6875 133.347656 213.242188 133.082031 C 213.152344 133.082031 212.976562 132.996094 212.886719 132.90625 C 212.886719 132.90625 212.796875 132.816406 212.796875 132.816406 L 207.285156 129.824219 C 207.015625 129.738281 206.75 129.648438 206.574219 129.5625 C 203.546875 127.53125 200.609375 125.503906 197.675781 123.5625 C 196.515625 122.769531 196.160156 121.882812 196.152344 120.554688 C 196.28125 108.484375 196.230469 96.417969 196.265625 84.351562 C 196.261719 82.753906 196.253906 81.15625 196.335938 79.558594 C 196.414062 76.894531 196.3125 74.144531 196.65625 71.480469 C 196.910156 68.285156 198.40625 65.707031 201.773438 64.714844 C 202.128906 64.625 202.394531 64.359375 202.835938 64.089844 C 202.125 63.382812 201.414062 63.386719 200.703125 63.300781 C 200.527344 63.300781 200.351562 63.390625 200.171875 63.390625 Z M 234.488281 142.398438 L 234.402344 142.398438 C 234.402344 142.398438 234.402344 142.398438 234.488281 142.398438 Z M 234.3125 142.488281 Z M 234.3125 142.488281 " clip-rule="nonzero"/></clipPath><linearGradient x1="-0.240466" gradientTransform="matrix(-0.372824, -88.732091, 88.732091, -0.372824, 203.698164, 146.698492)" y1="0" x2="0.942865" gradientUnits="userSpaceOnUse" y2="0" id="979d637c6f"><stop stop-opacity="1" stop-color="rgb(77.648926%, 45.878601%, 0%)" offset="0"/><stop stop-opacity="1" stop-color="rgb(77.648926%, 45.878601%, 0%)" offset="0.125"/><stop stop-opacity="1" stop-color="rgb(77.648926%, 45.878601%, 0%)" offset="0.1875"/><stop stop-opacity="1" stop-color="rgb(77.648926%, 45.878601%, 0%)" offset="0.203125"/><stop stop-opacity="1" stop-color="rgb(77.841187%, 46.051025%, 0.137329%)" offset="0.210938"/><stop stop-opacity="1" stop-color="rgb(78.22876%, 46.3974%, 0.416565%)" offset="0.21875"/><stop stop-opacity="1" stop-color="rgb(78.619385%, 46.746826%, 0.697327%)" offset="0.226562"/><stop stop-opacity="1" stop-color="rgb(79.008484%, 47.096252%, 0.978088%)" offset="0.234375"/><stop stop-opacity="1" stop-color="rgb(79.399109%, 47.444153%, 1.257324%)" offset="0.242188"/><stop stop-opacity="1" stop-color="rgb(79.788208%, 47.793579%, 1.538086%)" offset="0.25"/><stop stop-opacity="1" stop-color="rgb(80.178833%, 48.141479%, 1.818848%)" offset="0.257812"/><stop stop-opacity="1" stop-color="rgb(80.567932%, 48.490906%, 2.099609%)" offset="0.265625"/><stop stop-opacity="1" stop-color="rgb(80.958557%, 48.840332%, 2.380371%)" offset="0.273438"/><stop stop-opacity="1" stop-color="rgb(81.347656%, 49.188232%, 2.659607%)" offset="0.28125"/><stop stop-opacity="1" stop-color="rgb(81.738281%, 49.537659%, 2.940369%)" offset="0.289062"/><stop stop-opacity="1" stop-color="rgb(82.12738%, 49.887085%, 3.22113%)" offset="0.296875"/><stop stop-opacity="1" stop-color="rgb(82.518005%, 50.234985%, 3.501892%)" offset="0.304688"/><stop stop-opacity="1" stop-color="rgb(82.907104%, 50.584412%, 3.782654%)" offset="0.3125"/><stop stop-opacity="1" stop-color="rgb(83.297729%, 50.933838%, 4.063416%)" offset="0.320312"/><stop stop-opacity="1" stop-color="rgb(83.686829%, 51.281738%, 4.342651%)" offset="0.328125"/><stop stop-opacity="1" stop-color="rgb(84.077454%, 51.631165%, 4.623413%)" offset="0.335938"/><stop stop-opacity="1" stop-color="rgb(84.466553%, 51.979065%, 4.904175%)" offset="0.34375"/><stop stop-opacity="1" stop-color="rgb(84.857178%, 52.328491%, 5.184937%)" offset="0.351562"/><stop stop-opacity="1" stop-color="rgb(85.246277%, 52.677917%, 5.465698%)" offset="0.359375"/><stop stop-opacity="1" stop-color="rgb(85.636902%, 53.025818%, 5.74646%)" offset="0.367188"/><stop stop-opacity="1" stop-color="rgb(86.026001%, 53.375244%, 6.025696%)" offset="0.375"/><stop stop-opacity="1" stop-color="rgb(86.416626%, 53.72467%, 6.306458%)" offset="0.382812"/><stop stop-opacity="1" stop-color="rgb(86.805725%, 54.072571%, 6.587219%)" offset="0.390625"/><stop stop-opacity="1" stop-color="rgb(87.19635%, 54.421997%, 6.867981%)" offset="0.398438"/><stop stop-opacity="1" stop-color="rgb(87.585449%, 54.769897%, 7.148743%)" offset="0.40625"/><stop stop-opacity="1" stop-color="rgb(87.976074%, 55.119324%, 7.427979%)" offset="0.414063"/><stop stop-opacity="1" stop-color="rgb(88.365173%, 55.46875%, 7.70874%)" offset="0.421875"/><stop stop-opacity="1" stop-color="rgb(88.755798%, 55.81665%, 7.989502%)" offset="0.429688"/><stop stop-opacity="1" stop-color="rgb(89.144897%, 56.166077%, 8.270264%)" offset="0.4375"/><stop stop-opacity="1" stop-color="rgb(89.535522%, 56.515503%, 8.551025%)" offset="0.445312"/><stop stop-opacity="1" stop-color="rgb(89.924622%, 56.863403%, 8.831787%)" offset="0.453125"/><stop stop-opacity="1" stop-color="rgb(90.315247%, 57.21283%, 9.111023%)" offset="0.460937"/><stop stop-opacity="1" stop-color="rgb(90.704346%, 57.562256%, 9.391785%)" offset="0.46875"/><stop stop-opacity="1" stop-color="rgb(91.094971%, 57.910156%, 9.672546%)" offset="0.476563"/><stop stop-opacity="1" stop-color="rgb(91.48407%, 58.259583%, 9.953308%)" offset="0.484375"/><stop stop-opacity="1" stop-color="rgb(91.874695%, 58.607483%, 10.23407%)" offset="0.492188"/><stop stop-opacity="1" stop-color="rgb(92.263794%, 58.956909%, 10.513306%)" offset="0.5"/><stop stop-opacity="1" stop-color="rgb(92.654419%, 59.306335%, 10.794067%)" offset="0.507812"/><stop stop-opacity="1" stop-color="rgb(93.043518%, 59.654236%, 11.074829%)" offset="0.515625"/><stop stop-opacity="1" stop-color="rgb(93.432617%, 60.003662%, 11.355591%)" offset="0.523438"/><stop stop-opacity="1" stop-color="rgb(93.823242%, 60.353088%, 11.636353%)" offset="0.53125"/><stop stop-opacity="1" stop-color="rgb(94.212341%, 60.700989%, 11.917114%)" offset="0.539062"/><stop stop-opacity="1" stop-color="rgb(94.602966%, 61.050415%, 12.19635%)" offset="0.546875"/><stop stop-opacity="1" stop-color="rgb(94.992065%, 61.398315%, 12.477112%)" offset="0.554688"/><stop stop-opacity="1" stop-color="rgb(95.38269%, 61.747742%, 12.757874%)" offset="0.5625"/><stop stop-opacity="1" stop-color="rgb(95.77179%, 62.097168%, 13.038635%)" offset="0.570312"/><stop stop-opacity="1" stop-color="rgb(96.162415%, 62.445068%, 13.319397%)" offset="0.578125"/><stop stop-opacity="1" stop-color="rgb(96.551514%, 62.794495%, 13.598633%)" offset="0.585938"/><stop stop-opacity="1" stop-color="rgb(96.942139%, 63.143921%, 13.879395%)" offset="0.59375"/><stop stop-opacity="1" stop-color="rgb(97.331238%, 63.491821%, 14.160156%)" offset="0.601562"/><stop stop-opacity="1" stop-color="rgb(97.721863%, 63.841248%, 14.440918%)" offset="0.609375"/><stop stop-opacity="1" stop-color="rgb(98.110962%, 64.190674%, 14.72168%)" offset="0.617188"/><stop stop-opacity="1" stop-color="rgb(98.501587%, 64.538574%, 15.002441%)" offset="0.625"/><stop stop-opacity="1" stop-color="rgb(98.890686%, 64.888%, 15.281677%)" offset="0.632812"/><stop stop-opacity="1" stop-color="rgb(99.281311%, 65.235901%, 15.562439%)" offset="0.640625"/><stop stop-opacity="1" stop-color="rgb(99.67041%, 65.585327%, 15.843201%)" offset="0.648438"/><stop stop-opacity="1" stop-color="rgb(99.932861%, 65.820312%, 16.030884%)" offset="0.65625"/><stop stop-opacity="1" stop-color="rgb(100%, 65.879822%, 16.079712%)" offset="0.6875"/><stop stop-opacity="1" stop-color="rgb(100%, 65.879822%, 16.079712%)" offset="0.75"/><stop stop-opacity="1" stop-color="rgb(100%, 65.879822%, 16.079712%)" offset="1"/></linearGradient><clipPath id="f5290db704"><path d="M 270.394531 83.722656 L 298 83.722656 L 298 114.546875 L 270.394531 114.546875 Z M 270.394531 83.722656 " clip-rule="nonzero"/></clipPath><clipPath id="5f2cfcc95c"><path d="M 295.222656 84.101562 C 294.339844 84.683594 293.410156 85.28125 292.726562 86.058594 C 291.199219 87.757812 289.789062 89.519531 288.449219 91.367188 C 287.835938 92.222656 287.148438 92.605469 286.101562 92.589844 C 283.9375 92.550781 281.8125 92.574219 279.660156 92.582031 C 279.039062 92.574219 278.445312 92.585938 277.824219 92.578125 C 276.09375 92.59375 274.382812 92.582031 272.683594 92.617188 C 271.179688 92.648438 270.78125 93.003906 270.40625 94.664062 C 274.753906 95.730469 279.101562 96.792969 283.585938 97.898438 C 283.402344 98.417969 283.339844 98.730469 283.203125 98.964844 C 282.1875 100.722656 281.085938 102.429688 280.128906 104.222656 C 279.546875 105.296875 278.660156 105.683594 277.546875 105.78125 C 276.34375 105.90625 275.167969 106.046875 273.992188 106.191406 C 273.089844 106.332031 272.5 106.8125 272.476562 107.933594 C 274.277344 108.269531 276.015625 108.570312 277.738281 108.902344 C 277.871094 109.484375 277.964844 109.929688 278.101562 110.4375 C 278.59375 110.332031 279.070312 110.253906 279.46875 110.171875 C 280.78125 111.554688 281.195312 113.476562 282.636719 114.699219 C 283.550781 114.132812 283.878906 113.5 283.617188 112.527344 C 283.355469 111.558594 283.253906 110.519531 282.898438 109.574219 C 282.421875 108.167969 282.636719 107.117188 283.746094 106.078125 C 284.730469 105.121094 285.511719 103.96875 286.390625 102.917969 C 286.945312 102.296875 287.453125 101.691406 288.132812 100.914062 C 288.589844 101.683594 288.953125 102.207031 289.28125 102.785156 C 290.867188 105.382812 292.410156 107.992188 293.996094 110.589844 C 294.3125 111.125 294.773438 111.546875 295.152344 112.039062 C 296.566406 111.214844 296.644531 110.203125 296.292969 108.984375 C 295.089844 105.046875 293.929688 101.09375 292.710938 97.1875 C 292.421875 96.199219 292.46875 95.367188 293.15625 94.515625 C 294.027344 93.414062 294.84375 92.203125 295.496094 90.941406 C 296.351562 89.324219 297 87.589844 297.679688 85.871094 C 297.929688 85.234375 297.820312 84.546875 297.226562 84.085938 C 296.9375 83.839844 296.609375 83.730469 296.292969 83.742188 C 295.914062 83.71875 295.554688 83.863281 295.222656 84.101562 Z M 295.222656 84.101562 " clip-rule="nonzero"/></clipPath><linearGradient x1="-0.176809" gradientTransform="matrix(16.920213, -29.306669, 29.306669, 16.920213, 277.903716, 111.965937)" y1="0" x2="1.018677" gradientUnits="userSpaceOnUse" y2="0" id="b569797579"><stop stop-opacity="1" stop-color="rgb(77.648926%, 45.878601%, 0%)" offset="0"/><stop stop-opacity="1" stop-color="rgb(77.648926%, 45.878601%, 0%)" offset="0.125"/><stop stop-opacity="1" stop-color="rgb(77.648926%, 45.878601%, 0%)" offset="0.140625"/><stop stop-opacity="1" stop-color="rgb(77.662659%, 45.890808%, 0.00915527%)" offset="0.148438"/><stop stop-opacity="1" stop-color="rgb(77.87323%, 46.078491%, 0.160217%)" offset="0.152344"/><stop stop-opacity="1" stop-color="rgb(78.070068%, 46.255493%, 0.302124%)" offset="0.15625"/><stop stop-opacity="1" stop-color="rgb(78.266907%, 46.430969%, 0.444031%)" offset="0.160156"/><stop stop-opacity="1" stop-color="rgb(78.463745%, 46.607971%, 0.585938%)" offset="0.164063"/><stop stop-opacity="1" stop-color="rgb(78.660583%, 46.783447%, 0.726318%)" offset="0.167969"/><stop stop-opacity="1" stop-color="rgb(78.857422%, 46.960449%, 0.868225%)" offset="0.171875"/><stop stop-opacity="1" stop-color="rgb(79.05426%, 47.135925%, 1.010132%)" offset="0.175781"/><stop stop-opacity="1" stop-color="rgb(79.251099%, 47.312927%, 1.152039%)" offset="0.179688"/><stop stop-opacity="1" stop-color="rgb(79.447937%, 47.488403%, 1.293945%)" offset="0.183594"/><stop stop-opacity="1" stop-color="rgb(79.644775%, 47.665405%, 1.435852%)" offset="0.1875"/><stop stop-opacity="1" stop-color="rgb(79.841614%, 47.840881%, 1.576233%)" offset="0.191406"/><stop stop-opacity="1" stop-color="rgb(80.039978%, 48.017883%, 1.71814%)" offset="0.195313"/><stop stop-opacity="1" stop-color="rgb(80.236816%, 48.193359%, 1.860046%)" offset="0.199219"/><stop stop-opacity="1" stop-color="rgb(80.433655%, 48.370361%, 2.001953%)" offset="0.203125"/><stop stop-opacity="1" stop-color="rgb(80.630493%, 48.545837%, 2.14386%)" offset="0.207031"/><stop stop-opacity="1" stop-color="rgb(80.827332%, 48.722839%, 2.285767%)" offset="0.210938"/><stop stop-opacity="1" stop-color="rgb(81.02417%, 48.898315%, 2.427673%)" offset="0.214844"/><stop stop-opacity="1" stop-color="rgb(81.221008%, 49.075317%, 2.56958%)" offset="0.21875"/><stop stop-opacity="1" stop-color="rgb(81.417847%, 49.250793%, 2.709961%)" offset="0.222656"/><stop stop-opacity="1" stop-color="rgb(81.614685%, 49.427795%, 2.851868%)" offset="0.226563"/><stop stop-opacity="1" stop-color="rgb(81.811523%, 49.603271%, 2.993774%)" offset="0.230469"/><stop stop-opacity="1" stop-color="rgb(82.008362%, 49.780273%, 3.135681%)" offset="0.234375"/><stop stop-opacity="1" stop-color="rgb(82.2052%, 49.95575%, 3.277588%)" offset="0.238281"/><stop stop-opacity="1" stop-color="rgb(82.402039%, 50.132751%, 3.419495%)" offset="0.242188"/><stop stop-opacity="1" stop-color="rgb(82.598877%, 50.308228%, 3.559875%)" offset="0.246094"/><stop stop-opacity="1" stop-color="rgb(82.795715%, 50.485229%, 3.701782%)" offset="0.25"/><stop stop-opacity="1" stop-color="rgb(82.992554%, 50.660706%, 3.843689%)" offset="0.253906"/><stop stop-opacity="1" stop-color="rgb(83.189392%, 50.837708%, 3.985596%)" offset="0.257812"/><stop stop-opacity="1" stop-color="rgb(83.38623%, 51.013184%, 4.127502%)" offset="0.261719"/><stop stop-opacity="1" stop-color="rgb(83.584595%, 51.190186%, 4.269409%)" offset="0.265625"/><stop stop-opacity="1" stop-color="rgb(83.781433%, 51.365662%, 4.40979%)" offset="0.269531"/><stop stop-opacity="1" stop-color="rgb(83.978271%, 51.542664%, 4.551697%)" offset="0.273438"/><stop stop-opacity="1" stop-color="rgb(84.17511%, 51.71814%, 4.693604%)" offset="0.277344"/><stop stop-opacity="1" stop-color="rgb(84.371948%, 51.895142%, 4.83551%)" offset="0.28125"/><stop stop-opacity="1" stop-color="rgb(84.568787%, 52.070618%, 4.977417%)" offset="0.285156"/><stop stop-opacity="1" stop-color="rgb(84.765625%, 52.24762%, 5.119324%)" offset="0.289063"/><stop stop-opacity="1" stop-color="rgb(84.962463%, 52.423096%, 5.26123%)" offset="0.292969"/><stop stop-opacity="1" stop-color="rgb(85.159302%, 52.600098%, 5.403137%)" offset="0.296875"/><stop stop-opacity="1" stop-color="rgb(85.35614%, 52.775574%, 5.543518%)" offset="0.300781"/><stop stop-opacity="1" stop-color="rgb(85.552979%, 52.952576%, 5.685425%)" offset="0.304688"/><stop stop-opacity="1" stop-color="rgb(85.749817%, 53.128052%, 5.827332%)" offset="0.308594"/><stop stop-opacity="1" stop-color="rgb(85.946655%, 53.305054%, 5.969238%)" offset="0.3125"/><stop stop-opacity="1" stop-color="rgb(86.143494%, 53.48053%, 6.111145%)" offset="0.316406"/><stop stop-opacity="1" stop-color="rgb(86.340332%, 53.657532%, 6.253052%)" offset="0.320313"/><stop stop-opacity="1" stop-color="rgb(86.53717%, 53.833008%, 6.393433%)" offset="0.324219"/><stop stop-opacity="1" stop-color="rgb(86.735535%, 54.01001%, 6.535339%)" offset="0.328125"/><stop stop-opacity="1" stop-color="rgb(86.932373%, 54.185486%, 6.677246%)" offset="0.332031"/><stop stop-opacity="1" stop-color="rgb(87.129211%, 54.362488%, 6.819153%)" offset="0.335938"/><stop stop-opacity="1" stop-color="rgb(87.32605%, 54.537964%, 6.96106%)" offset="0.339844"/><stop stop-opacity="1" stop-color="rgb(87.522888%, 54.714966%, 7.102966%)" offset="0.34375"/><stop stop-opacity="1" stop-color="rgb(87.719727%, 54.890442%, 7.244873%)" offset="0.347656"/><stop stop-opacity="1" stop-color="rgb(87.916565%, 55.067444%, 7.38678%)" offset="0.351563"/><stop stop-opacity="1" stop-color="rgb(88.113403%, 55.24292%, 7.527161%)" offset="0.355469"/><stop stop-opacity="1" stop-color="rgb(88.310242%, 55.419922%, 7.669067%)" offset="0.359375"/><stop stop-opacity="1" stop-color="rgb(88.50708%, 55.595398%, 7.810974%)" offset="0.363281"/><stop stop-opacity="1" stop-color="rgb(88.703918%, 55.7724%, 7.952881%)" offset="0.367188"/><stop stop-opacity="1" stop-color="rgb(88.900757%, 55.947876%, 8.094788%)" offset="0.371094"/><stop stop-opacity="1" stop-color="rgb(89.097595%, 56.124878%, 8.236694%)" offset="0.375"/><stop stop-opacity="1" stop-color="rgb(89.294434%, 56.300354%, 8.377075%)" offset="0.378906"/><stop stop-opacity="1" stop-color="rgb(89.491272%, 56.477356%, 8.518982%)" offset="0.382813"/><stop stop-opacity="1" stop-color="rgb(89.68811%, 56.652832%, 8.660889%)" offset="0.386719"/><stop stop-opacity="1" stop-color="rgb(89.886475%, 56.829834%, 8.802795%)" offset="0.390625"/><stop stop-opacity="1" stop-color="rgb(90.083313%, 57.00531%, 8.944702%)" offset="0.394531"/><stop stop-opacity="1" stop-color="rgb(90.280151%, 57.182312%, 9.086609%)" offset="0.398438"/><stop stop-opacity="1" stop-color="rgb(90.47699%, 57.357788%, 9.228516%)" offset="0.402344"/><stop stop-opacity="1" stop-color="rgb(90.673828%, 57.53479%, 9.370422%)" offset="0.40625"/><stop stop-opacity="1" stop-color="rgb(90.870667%, 57.710266%, 9.510803%)" offset="0.410156"/><stop stop-opacity="1" stop-color="rgb(91.067505%, 57.887268%, 9.65271%)" offset="0.414063"/><stop stop-opacity="1" stop-color="rgb(91.264343%, 58.062744%, 9.794617%)" offset="0.417969"/><stop stop-opacity="1" stop-color="rgb(91.461182%, 58.23822%, 9.936523%)" offset="0.421875"/><stop stop-opacity="1" stop-color="rgb(91.65802%, 58.413696%, 10.07843%)" offset="0.425781"/><stop stop-opacity="1" stop-color="rgb(91.854858%, 58.590698%, 10.220337%)" offset="0.429688"/><stop stop-opacity="1" stop-color="rgb(92.051697%, 58.766174%, 10.360718%)" offset="0.433594"/><stop stop-opacity="1" stop-color="rgb(92.248535%, 58.943176%, 10.502625%)" offset="0.4375"/><stop stop-opacity="1" stop-color="rgb(92.445374%, 59.118652%, 10.644531%)" offset="0.441406"/><stop stop-opacity="1" stop-color="rgb(92.642212%, 59.295654%, 10.786438%)" offset="0.445313"/><stop stop-opacity="1" stop-color="rgb(92.83905%, 59.47113%, 10.928345%)" offset="0.449219"/><stop stop-opacity="1" stop-color="rgb(93.037415%, 59.648132%, 11.070251%)" offset="0.453125"/><stop stop-opacity="1" stop-color="rgb(93.234253%, 59.823608%, 11.212158%)" offset="0.457031"/><stop stop-opacity="1" stop-color="rgb(93.431091%, 60.00061%, 11.354065%)" offset="0.460938"/><stop stop-opacity="1" stop-color="rgb(93.62793%, 60.176086%, 11.494446%)" offset="0.464844"/><stop stop-opacity="1" stop-color="rgb(93.824768%, 60.353088%, 11.636353%)" offset="0.46875"/><stop stop-opacity="1" stop-color="rgb(94.021606%, 60.528564%, 11.778259%)" offset="0.472656"/><stop stop-opacity="1" stop-color="rgb(94.218445%, 60.705566%, 11.920166%)" offset="0.476563"/><stop stop-opacity="1" stop-color="rgb(94.415283%, 60.881042%, 12.062073%)" offset="0.480469"/><stop stop-opacity="1" stop-color="rgb(94.612122%, 61.058044%, 12.203979%)" offset="0.484375"/><stop stop-opacity="1" stop-color="rgb(94.80896%, 61.233521%, 12.34436%)" offset="0.488281"/><stop stop-opacity="1" stop-color="rgb(95.005798%, 61.410522%, 12.486267%)" offset="0.492188"/><stop stop-opacity="1" stop-color="rgb(95.202637%, 61.585999%, 12.628174%)" offset="0.496094"/><stop stop-opacity="1" stop-color="rgb(95.399475%, 61.763%, 12.770081%)" offset="0.5"/><stop stop-opacity="1" stop-color="rgb(95.596313%, 61.938477%, 12.911987%)" offset="0.503906"/><stop stop-opacity="1" stop-color="rgb(95.793152%, 62.115479%, 13.053894%)" offset="0.507812"/><stop stop-opacity="1" stop-color="rgb(95.98999%, 62.290955%, 13.194275%)" offset="0.511719"/><stop stop-opacity="1" stop-color="rgb(96.186829%, 62.467957%, 13.336182%)" offset="0.515625"/><stop stop-opacity="1" stop-color="rgb(96.383667%, 62.643433%, 13.478088%)" offset="0.519531"/><stop stop-opacity="1" stop-color="rgb(96.582031%, 62.820435%, 13.619995%)" offset="0.523438"/><stop stop-opacity="1" stop-color="rgb(96.77887%, 62.995911%, 13.761902%)" offset="0.527344"/><stop stop-opacity="1" stop-color="rgb(96.975708%, 63.172913%, 13.903809%)" offset="0.53125"/><stop stop-opacity="1" stop-color="rgb(97.172546%, 63.348389%, 14.045715%)" offset="0.535156"/><stop stop-opacity="1" stop-color="rgb(97.369385%, 63.525391%, 14.187622%)" offset="0.539063"/><stop stop-opacity="1" stop-color="rgb(97.566223%, 63.700867%, 14.328003%)" offset="0.542969"/><stop stop-opacity="1" stop-color="rgb(97.763062%, 63.877869%, 14.46991%)" offset="0.546875"/><stop stop-opacity="1" stop-color="rgb(97.9599%, 64.053345%, 14.611816%)" offset="0.550781"/><stop stop-opacity="1" stop-color="rgb(98.156738%, 64.230347%, 14.753723%)" offset="0.554688"/><stop stop-opacity="1" stop-color="rgb(98.353577%, 64.405823%, 14.89563%)" offset="0.558594"/><stop stop-opacity="1" stop-color="rgb(98.550415%, 64.582825%, 15.037537%)" offset="0.5625"/><stop stop-opacity="1" stop-color="rgb(98.747253%, 64.758301%, 15.177917%)" offset="0.566406"/><stop stop-opacity="1" stop-color="rgb(98.944092%, 64.935303%, 15.319824%)" offset="0.570312"/><stop stop-opacity="1" stop-color="rgb(99.14093%, 65.110779%, 15.461731%)" offset="0.574219"/><stop stop-opacity="1" stop-color="rgb(99.337769%, 65.287781%, 15.603638%)" offset="0.578125"/><stop stop-opacity="1" stop-color="rgb(99.534607%, 65.463257%, 15.745544%)" offset="0.582031"/><stop stop-opacity="1" stop-color="rgb(99.732971%, 65.640259%, 15.887451%)" offset="0.585938"/><stop stop-opacity="1" stop-color="rgb(99.865723%, 65.759277%, 15.983582%)" offset="0.59375"/><stop stop-opacity="1" stop-color="rgb(100%, 65.879822%, 16.079712%)" offset="0.625"/><stop stop-opacity="1" stop-color="rgb(100%, 65.879822%, 16.079712%)" offset="0.75"/><stop stop-opacity="1" stop-color="rgb(100%, 65.879822%, 16.079712%)" offset="1"/></linearGradient><clipPath id="8b25f83ad8"><path d="M 111 143.707031 L 224 143.707031 L 224 218.710938 L 111 218.710938 Z M 111 143.707031 " clip-rule="nonzero"/></clipPath><clipPath id="d2df417fd3"><path d="M 224 159.097656 C 223.839844 160.488281 223.695312 161.832031 223.527344 163.171875 C 222.953125 167.792969 222.539062 172.4375 221.746094 177.019531 C 219.960938 187.367188 215.75 196.648438 208.796875 204.574219 C 202.34375 211.933594 194.277344 216.519531 184.589844 218.152344 C 183.125 218.394531 181.625 218.460938 180.136719 218.578125 C 179.734375 218.613281 179.320312 218.546875 178.636719 218.511719 C 179.335938 217.832031 180.039062 217.792969 180.65625 217.617188 C 186.941406 215.785156 192.558594 212.710938 197.632812 208.59375 C 206.105469 201.726562 211.460938 192.871094 214.328125 182.4375 C 215.597656 177.824219 216.5 173.132812 216.617188 168.324219 C 216.628906 167.699219 216.527344 167.070312 216.46875 166.316406 C 215.847656 166.417969 215.4375 166.441406 215.058594 166.558594 C 207.730469 168.789062 201.195312 172.363281 195.808594 177.898438 C 192.769531 181.023438 190.394531 184.605469 188.863281 188.671875 C 188.136719 190.609375 187.875 192.71875 187.398438 194.75 C 185.683594 202.039062 182.550781 208.597656 177.398438 214.109375 C 175.808594 215.8125 174.058594 217.324219 171.773438 218.296875 C 171.925781 217.984375 172.023438 217.625 172.242188 217.363281 C 177.089844 211.523438 179.984375 204.75 181.488281 197.390625 C 184.191406 184.160156 181.601562 171.988281 173.78125 160.972656 C 171.882812 158.300781 169.804688 155.761719 167.808594 153.15625 C 167.539062 153.273438 167.332031 153.296875 167.238281 153.414062 C 163.839844 157.585938 160.382812 161.714844 157.847656 166.503906 C 154.460938 172.910156 152.835938 179.71875 152.75 186.984375 C 152.628906 197.265625 155.660156 206.503906 161.355469 214.960938 C 161.722656 215.507812 162.136719 216.019531 162.53125 216.542969 C 162.921875 217.054688 163.316406 217.570312 163.789062 218.1875 C 163.019531 218.515625 162.667969 217.992188 162.308594 217.726562 C 158.566406 214.953125 155.453125 211.589844 153.0625 207.59375 C 150.023438 202.507812 148.136719 197.027344 147.269531 191.144531 C 146.734375 187.542969 144.890625 184.398438 142.851562 181.425781 C 138.4375 174.980469 132.3125 170.773438 125.066406 168.109375 C 123.28125 167.449219 121.410156 167.015625 119.574219 166.496094 C 119.304688 166.421875 119.007812 166.453125 118.492188 166.417969 C 118.636719 168.238281 118.703125 169.949219 118.914062 171.640625 C 119.660156 177.660156 121.1875 183.480469 123.542969 189.078125 C 128.066406 199.835938 135.496094 207.976562 145.703125 213.59375 C 149.113281 215.472656 152.695312 216.960938 156.433594 218.066406 C 156.636719 218.128906 156.816406 218.273438 156.964844 218.707031 C 155.828125 218.644531 154.679688 218.667969 153.5625 218.5 C 140.632812 216.523438 130.53125 209.996094 123.011719 199.371094 C 117.042969 190.941406 113.730469 181.511719 112.53125 171.296875 C 112.089844 167.503906 111.671875 163.707031 111.253906 159.914062 C 111.234375 159.746094 111.316406 159.566406 111.375 159.269531 C 112.171875 159.269531 112.992188 159.164062 113.777344 159.285156 C 122.25 160.59375 130.054688 163.503906 136.847656 168.875 C 140.769531 171.976562 143.710938 175.835938 145.929688 180.277344 C 146.195312 180.8125 146.429688 181.359375 146.835938 182.242188 C 147.011719 181.226562 147.175781 180.527344 147.25 179.820312 C 148.203125 171.042969 151.84375 163.441406 157.332031 156.644531 C 159.773438 153.621094 162.238281 150.621094 164.65625 147.582031 C 165.613281 146.375 166.46875 145.082031 167.457031 143.707031 C 167.796875 144.027344 168.074219 144.226562 168.277344 144.484375 C 171.105469 148.109375 173.875 151.785156 176.757812 155.363281 C 181.496094 161.25 185.324219 167.605469 187.054688 175.046875 C 187.539062 177.132812 187.738281 179.285156 188.070312 181.402344 C 188.140625 181.855469 188.234375 182.304688 188.382812 183.09375 C 189.117188 181.550781 189.648438 180.296875 190.300781 179.109375 C 194.210938 171.96875 200.167969 167.054688 207.40625 163.589844 C 211.898438 161.4375 216.621094 159.949219 221.535156 159.074219 C 222.0625 158.980469 222.597656 158.9375 223.132812 158.910156 C 223.355469 158.902344 223.582031 159.003906 224 159.097656 Z M 224 159.097656 " clip-rule="nonzero"/></clipPath><clipPath id="2ec365b061"><path d="M 0.199219 0.707031 L 113 0.707031 L 113 75.710938 L 0.199219 75.710938 Z M 0.199219 0.707031 " clip-rule="nonzero"/></clipPath><clipPath id="dc8e31798a"><path d="M 113 16.097656 C 112.839844 17.488281 112.695312 18.832031 112.527344 20.171875 C 111.953125 24.792969 111.539062 29.4375 110.746094 34.019531 C 108.960938 44.367188 104.75 53.648438 97.796875 61.574219 C 91.34375 68.933594 83.277344 73.519531 73.589844 75.152344 C 72.125 75.394531 70.625 75.460938 69.136719 75.578125 C 68.734375 75.613281 68.320312 75.546875 67.636719 75.511719 C 68.335938 74.832031 69.039062 74.792969 69.65625 74.617188 C 75.941406 72.785156 81.558594 69.710938 86.632812 65.59375 C 95.105469 58.726562 100.460938 49.871094 103.328125 39.4375 C 104.597656 34.824219 105.5 30.132812 105.617188 25.324219 C 105.628906 24.699219 105.527344 24.070312 105.46875 23.316406 C 104.847656 23.417969 104.4375 23.441406 104.058594 23.558594 C 96.730469 25.789062 90.195312 29.363281 84.808594 34.898438 C 81.769531 38.023438 79.394531 41.605469 77.863281 45.671875 C 77.136719 47.609375 76.875 49.71875 76.398438 51.75 C 74.683594 59.039062 71.550781 65.597656 66.398438 71.109375 C 64.808594 72.8125 63.058594 74.324219 60.773438 75.296875 C 60.925781 74.984375 61.023438 74.625 61.242188 74.363281 C 66.089844 68.523438 68.984375 61.75 70.488281 54.390625 C 73.191406 41.160156 70.601562 28.988281 62.78125 17.972656 C 60.882812 15.300781 58.804688 12.761719 56.808594 10.15625 C 56.539062 10.273438 56.332031 10.296875 56.238281 10.414062 C 52.839844 14.585938 49.382812 18.714844 46.847656 23.503906 C 43.460938 29.910156 41.835938 36.71875 41.75 43.984375 C 41.628906 54.265625 44.660156 63.503906 50.355469 71.960938 C 50.722656 72.507812 51.136719 73.019531 51.53125 73.542969 C 51.921875 74.054688 52.316406 74.570312 52.789062 75.1875 C 52.019531 75.515625 51.667969 74.992188 51.308594 74.726562 C 47.566406 71.953125 44.453125 68.589844 42.0625 64.59375 C 39.023438 59.507812 37.136719 54.027344 36.269531 48.144531 C 35.734375 44.542969 33.890625 41.398438 31.851562 38.425781 C 27.4375 31.980469 21.3125 27.773438 14.066406 25.109375 C 12.28125 24.449219 10.410156 24.015625 8.574219 23.496094 C 8.304688 23.421875 8.007812 23.453125 7.492188 23.417969 C 7.636719 25.238281 7.703125 26.949219 7.914062 28.640625 C 8.660156 34.660156 10.1875 40.480469 12.542969 46.078125 C 17.066406 56.835938 24.496094 64.976562 34.703125 70.59375 C 38.113281 72.472656 41.695312 73.960938 45.433594 75.066406 C 45.636719 75.128906 45.816406 75.273438 45.964844 75.707031 C 44.828125 75.644531 43.679688 75.667969 42.5625 75.5 C 29.632812 73.523438 19.53125 66.996094 12.011719 56.371094 C 6.042969 47.941406 2.730469 38.511719 1.53125 28.296875 C 1.089844 24.503906 0.671875 20.707031 0.253906 16.914062 C 0.234375 16.746094 0.316406 16.566406 0.375 16.269531 C 1.171875 16.269531 1.992188 16.164062 2.777344 16.285156 C 11.25 17.59375 19.054688 20.503906 25.847656 25.875 C 29.769531 28.976562 32.710938 32.835938 34.929688 37.277344 C 35.195312 37.8125 35.429688 38.359375 35.835938 39.242188 C 36.011719 38.226562 36.175781 37.527344 36.25 36.820312 C 37.203125 28.042969 40.84375 20.441406 46.332031 13.644531 C 48.773438 10.621094 51.238281 7.621094 53.65625 4.582031 C 54.613281 3.375 55.46875 2.082031 56.457031 0.707031 C 56.796875 1.027344 57.074219 1.226562 57.277344 1.484375 C 60.105469 5.109375 62.875 8.785156 65.757812 12.363281 C 70.496094 18.25 74.324219 24.605469 76.054688 32.046875 C 76.539062 34.132812 76.738281 36.285156 77.070312 38.402344 C 77.140625 38.855469 77.234375 39.304688 77.382812 40.09375 C 78.117188 38.550781 78.648438 37.296875 79.300781 36.109375 C 83.210938 28.96875 89.167969 24.054688 96.40625 20.589844 C 100.898438 18.4375 105.621094 16.949219 110.535156 16.074219 C 111.0625 15.980469 111.597656 15.9375 112.132812 15.910156 C 112.355469 15.902344 112.582031 16.003906 113 16.097656 Z M 113 16.097656 " clip-rule="nonzero"/></clipPath><clipPath id="4391fdf094"><rect x="0" width="113" y="0" height="76"/></clipPath><clipPath id="fdee4d525c"><path d="M 177.210938 189.4375 L 255.085938 189.4375 L 255.085938 224.6875 L 177.210938 224.6875 Z M 177.210938 189.4375 " clip-rule="nonzero"/></clipPath><clipPath id="928577b346"><path d="M 255.015625 191.542969 C 254.789062 191.972656 254.746094 192.164062 254.625 192.273438 C 251.304688 195.175781 248.800781 198.769531 246.230469 202.292969 C 241.335938 208.988281 235.5625 214.71875 228.304688 218.84375 C 222.761719 221.988281 216.789062 223.699219 210.445312 224.3125 C 201.117188 225.214844 192.125 223.390625 183.15625 221.261719 C 181.46875 220.863281 179.796875 220.417969 178.121094 219.972656 C 177.800781 219.886719 177.507812 219.703125 177.210938 219.292969 C 177.570312 219.242188 177.9375 219.125 178.289062 219.15625 C 185.855469 219.769531 193.421875 220.464844 201.023438 220.113281 C 207.386719 219.824219 213.613281 218.78125 219.519531 216.238281 C 226.628906 213.175781 232.609375 208.597656 237.632812 202.75 C 239.542969 200.53125 241.320312 198.207031 243.265625 195.796875 C 242.292969 195.191406 241.347656 195.230469 240.4375 195.238281 C 234.316406 195.296875 228.457031 196.519531 222.90625 199.15625 C 218.066406 201.457031 213.679688 204.449219 209.417969 207.65625 C 208.90625 208.042969 208.359375 208.386719 207.59375 208.5625 C 207.714844 208.285156 207.78125 207.964844 207.96875 207.742188 C 210.984375 204.183594 214.039062 200.65625 217.683594 197.707031 C 223.128906 193.296875 229.339844 190.742188 236.289062 189.941406 C 241.675781 189.316406 247.027344 189.4375 252.320312 190.710938 C 253.179688 190.917969 254.011719 191.230469 255.015625 191.542969 Z M 255.015625 191.542969 " clip-rule="nonzero"/></clipPath><clipPath id="2f0fe62f41"><path d="M 0.210938 0.480469 L 78 0.480469 L 78 35.6875 L 0.210938 35.6875 Z M 0.210938 0.480469 " clip-rule="nonzero"/></clipPath><clipPath id="0ccb46b1d4"><path d="M 78.015625 2.542969 C 77.789062 2.972656 77.746094 3.164062 77.625 3.273438 C 74.304688 6.175781 71.800781 9.769531 69.230469 13.292969 C 64.335938 19.988281 58.5625 25.71875 51.304688 29.84375 C 45.761719 32.988281 39.789062 34.699219 33.445312 35.3125 C 24.117188 36.214844 15.125 34.390625 6.15625 32.261719 C 4.46875 31.863281 2.796875 31.417969 1.121094 30.972656 C 0.800781 30.886719 0.507812 30.703125 0.210938 30.292969 C 0.570312 30.242188 0.9375 30.125 1.289062 30.15625 C 8.855469 30.769531 16.421875 31.464844 24.023438 31.113281 C 30.386719 30.824219 36.613281 29.78125 42.519531 27.238281 C 49.628906 24.175781 55.609375 19.597656 60.632812 13.75 C 62.542969 11.53125 64.320312 9.207031 66.265625 6.796875 C 65.292969 6.191406 64.347656 6.230469 63.4375 6.238281 C 57.316406 6.296875 51.457031 7.519531 45.90625 10.15625 C 41.066406 12.457031 36.679688 15.449219 32.417969 18.65625 C 31.90625 19.042969 31.359375 19.386719 30.59375 19.5625 C 30.714844 19.285156 30.78125 18.964844 30.96875 18.742188 C 33.984375 15.183594 37.039062 11.65625 40.683594 8.707031 C 46.128906 4.296875 52.339844 1.742188 59.289062 0.941406 C 64.675781 0.316406 70.027344 0.4375 75.320312 1.710938 C 76.179688 1.917969 77.011719 2.230469 78.015625 2.542969 Z M 78.015625 2.542969 " clip-rule="nonzero"/></clipPath><clipPath id="9eceff58e2"><rect x="0" width="79" y="0" height="36"/></clipPath><clipPath id="70ca694e15"><path d="M 80.039062 189.707031 L 158.660156 189.707031 L 158.660156 224.054688 L 80.039062 224.054688 Z M 80.039062 189.707031 " clip-rule="nonzero"/></clipPath><clipPath id="be7d684f95"><path d="M 128.121094 208.921875 C 127.46875 208.4375 126.816406 207.960938 126.171875 207.46875 C 121.027344 203.523438 115.582031 200.125 109.441406 197.90625 C 104.023438 195.945312 98.441406 195.257812 92.714844 195.542969 C 92.496094 195.554688 92.285156 195.644531 91.8125 195.761719 C 92.882812 197.105469 93.808594 198.320312 94.796875 199.488281 C 98.789062 204.207031 103.230469 208.433594 108.421875 211.839844 C 114.824219 216.050781 121.839844 218.542969 129.4375 219.46875 C 133.472656 219.960938 137.515625 220.289062 141.578125 220.125 C 144.617188 220.003906 147.648438 219.714844 150.683594 219.542969 C 153.289062 219.394531 155.898438 219.304688 158.59375 219.515625 C 158.273438 219.671875 157.96875 219.90625 157.628906 219.972656 C 151.722656 221.140625 145.847656 222.550781 139.890625 223.371094 C 131.304688 224.546875 122.726562 224.390625 114.421875 221.417969 C 108.039062 219.136719 102.476562 215.488281 97.289062 211.175781 C 93.71875 208.210938 90.757812 204.722656 87.960938 201.058594 C 85.644531 198.019531 83.390625 194.925781 80.527344 192.351562 C 80.363281 192.203125 80.285156 191.960938 80.171875 191.773438 C 82.707031 189.679688 95.019531 188.917969 102.878906 190.714844 C 113.859375 193.21875 121.75 199.964844 128.421875 208.523438 C 128.320312 208.65625 128.222656 208.789062 128.121094 208.921875 Z M 128.121094 208.921875 " clip-rule="nonzero"/></clipPath><clipPath id="41bb044b4d"><path d="M 0.0390625 0.707031 L 78.660156 0.707031 L 78.660156 35.054688 L 0.0390625 35.054688 Z M 0.0390625 0.707031 " clip-rule="nonzero"/></clipPath><clipPath id="b8b2b40054"><path d="M 48.121094 19.921875 C 47.46875 19.4375 46.816406 18.960938 46.171875 18.46875 C 41.027344 14.523438 35.582031 11.125 29.441406 8.90625 C 24.023438 6.945312 18.441406 6.257812 12.714844 6.542969 C 12.496094 6.554688 12.285156 6.644531 11.8125 6.761719 C 12.882812 8.105469 13.808594 9.320312 14.796875 10.488281 C 18.789062 15.207031 23.230469 19.433594 28.421875 22.839844 C 34.824219 27.050781 41.839844 29.542969 49.4375 30.46875 C 53.472656 30.960938 57.515625 31.289062 61.578125 31.125 C 64.617188 31.003906 67.648438 30.714844 70.683594 30.542969 C 73.289062 30.394531 75.898438 30.304688 78.59375 30.515625 C 78.273438 30.671875 77.96875 30.90625 77.628906 30.972656 C 71.722656 32.140625 65.847656 33.550781 59.890625 34.371094 C 51.304688 35.546875 42.726562 35.390625 34.421875 32.417969 C 28.039062 30.136719 22.476562 26.488281 17.289062 22.175781 C 13.71875 19.210938 10.757812 15.722656 7.960938 12.058594 C 5.644531 9.019531 3.390625 5.925781 0.527344 3.351562 C 0.363281 3.203125 0.285156 2.960938 0.171875 2.773438 C 2.707031 0.679688 15.019531 -0.0820312 22.878906 1.714844 C 33.859375 4.21875 41.75 10.964844 48.421875 19.523438 C 48.320312 19.65625 48.222656 19.789062 48.121094 19.921875 Z M 48.121094 19.921875 " clip-rule="nonzero"/></clipPath><clipPath id="4b630f2345"><rect x="0" width="79" y="0" height="36"/></clipPath><clipPath id="1bda79dc47"><path d="M 176.53125 190.242188 L 200.101562 190.242188 L 200.101562 217.578125 L 176.53125 217.578125 Z M 176.53125 190.242188 " clip-rule="nonzero"/></clipPath><clipPath id="763300f40a"><path d="M 200.011719 190.394531 C 199.984375 190.609375 200.007812 190.84375 199.921875 191.027344 C 196.660156 198.035156 193.070312 204.832031 187.492188 210.359375 C 184.820312 213.011719 181.851562 215.234375 178.511719 216.960938 C 178.085938 217.179688 177.644531 217.375 177.195312 217.539062 C 177.050781 217.59375 176.863281 217.515625 176.53125 217.480469 C 176.746094 217.210938 176.859375 217.007812 177.023438 216.878906 C 182.046875 213.050781 186.167969 208.34375 189.984375 203.371094 C 192.910156 199.550781 195.710938 195.628906 198.570312 191.757812 C 198.949219 191.246094 199.34375 190.746094 199.730469 190.242188 C 199.824219 190.292969 199.917969 190.34375 200.011719 190.394531 Z M 200.011719 190.394531 " clip-rule="nonzero"/></clipPath><clipPath id="4ebe473dd3"><path d="M 0.53125 0.242188 L 24.101562 0.242188 L 24.101562 27.578125 L 0.53125 27.578125 Z M 0.53125 0.242188 " clip-rule="nonzero"/></clipPath><clipPath id="f4080f22a7"><path d="M 24.011719 0.394531 C 23.984375 0.609375 24.007812 0.84375 23.921875 1.027344 C 20.660156 8.035156 17.070312 14.832031 11.492188 20.359375 C 8.820312 23.011719 5.851562 25.234375 2.511719 26.960938 C 2.085938 27.179688 1.644531 27.375 1.195312 27.539062 C 1.050781 27.59375 0.863281 27.515625 0.53125 27.480469 C 0.746094 27.210938 0.859375 27.007812 1.023438 26.878906 C 6.046875 23.050781 10.167969 18.34375 13.984375 13.371094 C 16.910156 9.550781 19.710938 5.628906 22.570312 1.757812 C 22.949219 1.246094 23.34375 0.746094 23.730469 0.242188 C 23.824219 0.292969 23.917969 0.34375 24.011719 0.394531 Z M 24.011719 0.394531 " clip-rule="nonzero"/></clipPath><clipPath id="248e29673a"><rect x="0" width="25" y="0" height="28"/></clipPath><clipPath id="892363f1a5"><path d="M 135.324219 189.84375 L 159.25 189.84375 L 159.25 217.585938 L 135.324219 217.585938 Z M 135.324219 189.84375 " clip-rule="nonzero"/></clipPath><clipPath id="67fe90d83b"><path d="M 135.410156 189.9375 C 137.136719 192.207031 138.664062 194.179688 140.152344 196.179688 C 144.140625 201.554688 148.046875 207.003906 152.859375 211.699219 C 154.605469 213.402344 156.550781 214.902344 158.40625 216.496094 C 158.65625 216.710938 158.90625 216.929688 159.15625 217.148438 C 159.097656 217.261719 159.035156 217.378906 158.976562 217.496094 C 158.238281 217.207031 157.464844 216.984375 156.769531 216.617188 C 151.886719 214.03125 147.800781 210.515625 144.429688 206.136719 C 140.761719 201.371094 138.042969 196.050781 135.339844 190.71875 C 135.296875 190.632812 135.355469 190.5 135.410156 189.9375 Z M 135.410156 189.9375 " clip-rule="nonzero"/></clipPath><clipPath id="f04c498e1c"><path d="M 0.324219 0.84375 L 24.199219 0.84375 L 24.199219 28.558594 L 0.324219 28.558594 Z M 0.324219 0.84375 " clip-rule="nonzero"/></clipPath><clipPath id="cbe7b4e49d"><path d="M 0.410156 0.9375 C 2.136719 3.207031 3.664062 5.179688 5.152344 7.179688 C 9.140625 12.554688 13.046875 18.003906 17.859375 22.699219 C 19.605469 24.402344 21.550781 25.902344 23.40625 27.496094 C 23.65625 27.710938 23.90625 27.929688 24.15625 28.148438 C 24.097656 28.261719 24.035156 28.378906 23.976562 28.496094 C 23.238281 28.207031 22.464844 27.984375 21.769531 27.617188 C 16.886719 25.03125 12.800781 21.515625 9.429688 17.136719 C 5.761719 12.371094 3.042969 7.050781 0.339844 1.71875 C 0.296875 1.632812 0.355469 1.5 0.410156 0.9375 Z M 0.410156 0.9375 " clip-rule="nonzero"/></clipPath><clipPath id="0efd241dcd"><rect x="0" width="25" y="0" height="29"/></clipPath><clipPath id="654e8a945e"><path d="M 61.355469 89.046875 L 125.988281 89.046875 L 125.988281 179.53125 L 61.355469 179.53125 Z M 61.355469 89.046875 " clip-rule="nonzero"/></clipPath><clipPath id="444274fa48"><path d="M 61.351562 89.644531 C 61.628906 90.578125 62.46875 90.484375 63.121094 90.667969 C 66.105469 91.601562 68.15625 93.464844 68.902344 96.542969 C 69.179688 97.941406 69.460938 99.339844 69.554688 100.734375 C 69.648438 105.117188 69.648438 109.5 69.648438 113.878906 C 69.554688 130.097656 69.648438 146.316406 69.460938 162.535156 C 69.460938 164.585938 68.992188 166.636719 68.433594 168.6875 C 67.78125 171.203125 66.105469 173.070312 63.496094 174 C 63.027344 174.09375 62.65625 174.375 62.191406 174.652344 C 62.5625 175.304688 63.027344 175.304688 63.496094 175.210938 C 63.585938 175.210938 63.773438 175.210938 63.867188 175.210938 C 65.730469 175.210938 67.597656 175.121094 69.460938 175.027344 C 72.628906 174.933594 75.796875 174.746094 78.96875 175.121094 C 83.535156 175.585938 90.621094 175.773438 97.609375 176.984375 C 107.117188 178.289062 105.160156 177.167969 111.683594 179.5 L 109.914062 171.390625 C 106.746094 169.898438 90.152344 169.804688 86.609375 169.246094 C 84.28125 168.78125 84.09375 168.6875 84.09375 166.171875 C 84.09375 161.324219 84 156.382812 84 151.445312 C 84 145.476562 84 139.417969 84 133.453125 C 84 131.496094 84.28125 131.125 86.238281 130.84375 C 89.40625 130.191406 92.667969 130.191406 95.839844 130.75 C 99.289062 131.402344 102.644531 132.335938 106.09375 132.800781 C 109.632812 133.359375 113.175781 133.265625 116.53125 132.054688 C 120.355469 130.75 123.242188 128.421875 125.109375 124.785156 C 125.386719 124.226562 125.851562 123.574219 125.199219 122.828125 C 124.734375 123.015625 124.269531 123.199219 123.894531 123.386719 C 121.75 124.597656 119.515625 125.15625 117.089844 125.34375 C 113.082031 125.625 109.167969 124.972656 105.347656 124.039062 C 98.542969 122.363281 91.832031 122.082031 85.121094 124.503906 C 84.933594 124.597656 84.558594 124.597656 84.09375 124.597656 C 84.09375 123.851562 84 123.105469 84 122.453125 C 84 114.066406 84 105.675781 84 97.289062 C 84 96.449219 84 95.703125 84.09375 94.957031 C 84.1875 93.746094 84.46875 93.464844 85.679688 93.371094 C 85.957031 93.371094 86.332031 93.371094 86.703125 93.371094 C 93.324219 93.371094 99.941406 93.371094 106.464844 93.371094 C 108.980469 93.371094 111.40625 93.558594 113.828125 94.210938 C 118.957031 95.515625 122.777344 98.3125 124.363281 103.625 C 124.546875 104.183594 124.640625 104.746094 125.574219 104.746094 C 125.667969 104.09375 125.851562 103.4375 125.851562 102.785156 C 125.851562 99.152344 125.851562 95.515625 125.851562 91.972656 C 125.851562 89.085938 125.851562 89.085938 122.871094 89.085938 C 108.144531 89.085938 93.414062 89.085938 78.59375 89.085938 C 73.5625 89.085938 68.527344 89.085938 63.496094 89.085938 C 63.402344 89.085938 62.84375 89.085938 62.75 89.085938 C 62.28125 89.085938 61.722656 89.179688 61.351562 89.644531 Z M 61.351562 89.644531 " clip-rule="nonzero"/></clipPath><clipPath id="86b71a88d4"><rect x="0" width="327" y="0" height="281"/></clipPath></defs><g transform="matrix(1, 0, 0, 1, 16, 45)"><g clip-path="url(#86b71a88d4)"><g clip-path="url(#cfb55fffdc)"><g clip-path="url(#c4b4a49863)"><path fill="#7eac69" d="M 194.929688 187.398438 L 272.40625 187.398438 L 272.40625 93.933594 L 194.929688 93.933594 Z M 194.929688 187.398438 " fill-opacity="1" fill-rule="nonzero"/></g></g><g clip-path="url(#da86a62a29)"><g clip-path="url(#b824e26438)"><path fill="url(#8f4175e402)" d="M 92.882812 31.953125 L 92.882812 116.382812 L 242.910156 116.382812 L 242.910156 31.953125 Z M 92.882812 31.953125 " fill-rule="nonzero"/></g></g><g clip-path="url(#6f004a7213)"><g clip-path="url(#8ff487f43d)"><g transform="matrix(1, 0, 0, 1, 81, 224)"><g clip-path="url(#f02396a7e6)"><g clip-path="url(#47f9bf01de)"><g clip-path="url(#d58d3ac085)"><path fill="#0f78b1" d="M 0.917969 0.855469 L 141.769531 0.855469 L 141.769531 23.664062 L 0.917969 23.664062 Z M 0.917969 0.855469 " fill-opacity="1" fill-rule="nonzero"/></g></g></g></g></g></g><g clip-path="url(#5895ed4a59)"><g clip-path="url(#c484ff1a05)"><g transform="matrix(1, 0, 0, 1, 174, 222)"><g clip-path="url(#e5ff628342)"><g clip-path="url(#4a2862d0a6)"><g clip-path="url(#3623f1e240)"><path fill="#0f78b1" d="M 0.558594 0.703125 L 83.949219 0.703125 L 83.949219 16.765625 L 0.558594 16.765625 Z M 0.558594 0.703125 " fill-opacity="1" fill-rule="nonzero"/></g></g></g></g></g></g><g clip-path="url(#88282a101d)"><g clip-path="url(#614ed3c505)"><g transform="matrix(1, 0, 0, 1, 118, 237)"><g clip-path="url(#d8ff985063)"><g clip-path="url(#4f9d242202)"><g clip-path="url(#dee572092b)"><path fill="#0f78b1" d="M 0.105469 0.628906 L 78.640625 0.628906 L 78.640625 16.011719 L 0.105469 16.011719 Z M 0.105469 0.628906 " fill-opacity="1" fill-rule="nonzero"/></g></g></g></g></g></g><g clip-path="url(#48369c5671)"><g clip-path="url(#99dd2519e0)"><path fill="url(#979d637c6f)" d="M 129.761719 168.347656 L 277.355469 167.726562 L 276.917969 62.726562 L 129.320312 63.347656 Z M 129.761719 168.347656 " fill-rule="nonzero"/></g></g><g clip-path="url(#f5290db704)"><g clip-path="url(#5f2cfcc95c)"><path fill="url(#b569797579)" d="M 257.058594 106.839844 L 291.050781 126.464844 L 311.277344 91.429688 L 277.289062 71.804688 Z M 257.058594 106.839844 " fill-rule="nonzero"/></g></g><g clip-path="url(#8b25f83ad8)"><g clip-path="url(#d2df417fd3)"><g transform="matrix(1, 0, 0, 1, 111, 143)"><g clip-path="url(#4391fdf094)"><g clip-path="url(#2ec365b061)"><g clip-path="url(#dc8e31798a)"><path fill="#f89b14" d="M 0.25 0.707031 L 113.046875 0.707031 L 113.046875 75.710938 L 0.25 75.710938 Z M 0.25 0.707031 " fill-opacity="1" fill-rule="nonzero"/></g></g></g></g></g></g><g clip-path="url(#fdee4d525c)"><g clip-path="url(#928577b346)"><g transform="matrix(1, 0, 0, 1, 177, 189)"><g clip-path="url(#9eceff58e2)"><g clip-path="url(#2f0fe62f41)"><g clip-path="url(#0ccb46b1d4)"><path fill="#f89b14" d="M 0.210938 0.574219 L 77.949219 0.574219 L 77.949219 35.550781 L 0.210938 35.550781 Z M 0.210938 0.574219 " fill-opacity="1" fill-rule="nonzero"/></g></g></g></g></g></g><g clip-path="url(#70ca694e15)"><g clip-path="url(#be7d684f95)"><g transform="matrix(1, 0, 0, 1, 80, 189)"><g clip-path="url(#4b630f2345)"><g clip-path="url(#41bb044b4d)"><g clip-path="url(#b8b2b40054)"><path fill="#f89b14" d="M 0.171875 0.707031 L 78.660156 0.707031 L 78.660156 35.054688 L 0.171875 35.054688 Z M 0.171875 0.707031 " fill-opacity="1" fill-rule="nonzero"/></g></g></g></g></g></g><g clip-path="url(#1bda79dc47)"><g clip-path="url(#763300f40a)"><g transform="matrix(1, 0, 0, 1, 176, 190)"><g clip-path="url(#248e29673a)"><g clip-path="url(#4ebe473dd3)"><g clip-path="url(#f4080f22a7)"><path fill="#f89b14" d="M 0.53125 0.242188 L 24.011719 0.242188 L 24.011719 27.578125 L 0.53125 27.578125 Z M 0.53125 0.242188 " fill-opacity="1" fill-rule="nonzero"/></g></g></g></g></g></g><g clip-path="url(#892363f1a5)"><g clip-path="url(#67fe90d83b)"><g transform="matrix(1, 0, 0, 1, 135, 189)"><g clip-path="url(#0efd241dcd)"><g clip-path="url(#f04c498e1c)"><g clip-path="url(#cbe7b4e49d)"><path fill="#f89b14" d="M 0.324219 0.9375 L 24.15625 0.9375 L 24.15625 28.492188 L 0.324219 28.492188 Z M 0.324219 0.9375 " fill-opacity="1" fill-rule="nonzero"/></g></g></g></g></g></g><g clip-path="url(#654e8a945e)"><g clip-path="url(#444274fa48)"><path fill="#7eac69" d="M 61.355469 179.5 L 125.851562 179.5 L 125.851562 89.085938 L 61.355469 89.085938 Z M 61.355469 179.5 " fill-opacity="1" fill-rule="nonzero"/></g></g></g></g></svg>